<?xml version="1.0" encoding="utf-8"?>
<!-- Generator: Adobe Illustrator 22.1.0, SVG Export Plug-In . SVG Version: 6.00 Build 0)  -->
<svg version="1.1" id="Layer_1" xmlns="http://www.w3.org/2000/svg" xmlns:xlink="http://www.w3.org/1999/xlink" x="0px" y="0px"
	 viewBox="0 0 4.4 5.9" style="enable-background:new 0 0 4.4 5.9;" xml:space="preserve">
<style type="text/css">
	.st0{fill:#BFBB50;}
	.st1{fill:#FEFEFE;}
</style>
<g>
	<path id="Fill-40" class="st0" d="M3.1,2.7H1.5L1.1,2.3V1.6l0.6-0.5h0.9l0.6,0.5V2.7z M3.9,2.7V1.3l-1-0.9H1.3l-1,0.9v1.4l1,0.8
		l1.8,0l0,1.1L2.5,5.1H1.6L1.1,4.6V4H0.2v1l1,0.9h1.6l1-0.9V3.5l0.5-0.4L3.9,2.7z"/>
	<path id="Fill-43" class="st1" d="M2.9,2.4H1.3L0.8,2V1.3l0.6-0.5h0.9l0.6,0.5V2.4z M3.7,2.3V0.9L2.6,0H1L0,0.9v1.4l1,0.8l1.8,0
		l0,1.1L2.3,4.7H1.4L0.8,4.3V3.6H0v1l1,0.9h1.6l1-0.9V3.2l0.5-0.4L3.7,2.3z"/>
</g>
</svg>
