<?xml version="1.0" encoding="utf-8"?>
<!-- Generator: Adobe Illustrator 22.1.0, SVG Export Plug-In . SVG Version: 6.00 Build 0)  -->
<svg version="1.1" id="Layer_1" xmlns="http://www.w3.org/2000/svg" xmlns:xlink="http://www.w3.org/1999/xlink" x="0px" y="0px"
	 viewBox="0 0 185 141" style="enable-background:new 0 0 185 141;" xml:space="preserve">
<style type="text/css">
	.st0{fill:#BFBB50;}
</style>
<g id="Group-13" transform="translate(67.889273, 0.584221)">
	<path id="Fill-3" class="st0" d="M35.5,29c-5.4-3.8-15.3-3.6-15.3-3.6S10.3,25.3,4.9,29c0,0-2.4-3.4,0-5.2
		c1.8-1.4,8.1-3.2,15.3-3.3c7.1,0.1,13.4,1.9,15.3,3.3C37.9,25.6,35.5,29,35.5,29"/>
	<path id="Fill-9" class="st0" d="M24.7,7.1c5.5,1.5,7.2,7.9,7.5,9.7c-2.3-0.8-4.4-1.3-6.5-1.4C27.9,11.3,24.7,7.1,24.7,7.1
		 M8.3,16.1c1.3-6.3,6.4-8.6,6.4-8.6C11.1,10.6,10.1,12,8.3,16.1 M20.2,5.1c-13,0-14.5,13.8-14.5,13.8s4.9-2.8,14.5-2.7
		s14.1,2.7,14.1,2.7S33.2,5.1,20.2,5.1"/>
	<path id="Fill-11" class="st0" d="M17.4,4.3h5.3c0,0,0-2-2.6-2C17.6,2.4,17.4,4.3,17.4,4.3"/>
</g>
<path class="st0" d="M69.4,61.6h1.4V26.4l-0.4-0.1c-0.1-0.1-0.7-0.8-0.7-3.7c0-3.5,2.1-4.9,2.2-4.9l0.2-0.2l0.1-0.3
	C74.7,4.7,84,3.6,84.4,3.6l0.4,0L85,3.2C85.6,2,86.5,2,87.6,2c0.2,0,0.4,0,0.6,0c1.2,0,2.1,0.1,2.7,1.2l0.2,0.3l0.4,0
	c0.1,0,9.7,1.1,12.3,13.7l0.1,0.3l0.2,0.2c0.1,0.1,2.2,1.5,2.2,4.9c0,2.9-0.6,3.6-0.7,3.7l-0.4,0.1v35.2h1.4V27.3
	c0.5-0.5,1.2-1.7,1.2-4.7c0-3.6-1.9-5.4-2.6-5.9c-1.5-6.9-5.1-10.4-7.8-12.2c-2.4-1.6-4.5-2.1-5.4-2.2c-1.1-1.7-2.8-1.6-3.7-1.6
	c-0.2,0-0.3,0-0.5,0c-0.9,0-2.7,0-3.7,1.6c-0.8,0.1-3,0.6-5.4,2.2c-2.7,1.8-6.2,5.3-7.8,12.2c-0.7,0.5-2.6,2.4-2.6,5.9
	c0,3,0.6,4.2,1.2,4.7V61.6z"/>
</svg>
