<?xml version="1.0" encoding="utf-8"?>
<!-- Generator: Adobe Illustrator 22.1.0, SVG Export Plug-In . SVG Version: 6.00 Build 0)  -->
<svg version="1.1" id="Layer_1" xmlns="http://www.w3.org/2000/svg" xmlns:xlink="http://www.w3.org/1999/xlink" x="0px" y="0px"
	 viewBox="0 0 185 141" style="enable-background:new 0 0 185 141;" xml:space="preserve">
<style type="text/css">
	.st0{filter:url(#Adobe_OpacityMaskFilter);}
	.st1{fill:#FFFFFF;}
	.st2{mask:url(#mask-2_6_);fill:#BFBB50;}
	.st3{filter:url(#Adobe_OpacityMaskFilter_1_);}
	.st4{mask:url(#mask-2_2_);fill:#BFBB50;}
	.st5{filter:url(#Adobe_OpacityMaskFilter_2_);}
	.st6{mask:url(#mask-2_3_);fill:#BFBB50;}
	.st7{filter:url(#Adobe_OpacityMaskFilter_3_);}
	.st8{mask:url(#mask-2_5_);fill:#BFBB50;}
	.st9{filter:url(#Adobe_OpacityMaskFilter_4_);}
	.st10{mask:url(#mask-2_8_);fill:#BFBB50;}
	.st11{filter:url(#Adobe_OpacityMaskFilter_5_);}
	.st12{mask:url(#mask-2_7_);fill:#BFBB50;}
	.st13{filter:url(#Adobe_OpacityMaskFilter_6_);}
	.st14{mask:url(#mask-2_4_);fill:#BFBB50;}
	.st15{filter:url(#Adobe_OpacityMaskFilter_7_);}
	.st16{mask:url(#mask-2_1_);fill:#BFBB50;}
</style>
<g>
	<g id="Group-26" transform="translate(72.249135, 25.497716)">
		<defs>
			<filter id="Adobe_OpacityMaskFilter" filterUnits="userSpaceOnUse" x="0.5" y="14" width="30.5" height="34.5">
				<feColorMatrix  type="matrix" values="1 0 0 0 0  0 1 0 0 0  0 0 1 0 0  0 0 0 1 0"/>
			</filter>
		</defs>
		<mask maskUnits="userSpaceOnUse" x="0.5" y="14" width="30.5" height="34.5" id="mask-2_6_">
			<g class="st0">
				<path id="path-1_6_" class="st1" d="M15.4-17.2c-1.9,0-10.1,0.3-14.9,3.6v62C5.3,51.7,13.5,52,15.4,52h0.8
					c1.9,0,10.1-0.3,14.9-3.6v-62c-4.8-3.3-12.9-3.6-14.9-3.6H15.4z"/>
			</g>
		</mask>
		<polygon id="Fill-17_1_" class="st2" points="31.1,14 0.5,34.7 0.5,48.5 31.1,27.7 		"/>
		<defs>
			<filter id="Adobe_OpacityMaskFilter_1_" filterUnits="userSpaceOnUse" x="0.5" y="-13.7" width="30.5" height="34.5">
				<feColorMatrix  type="matrix" values="1 0 0 0 0  0 1 0 0 0  0 0 1 0 0  0 0 0 1 0"/>
			</filter>
		</defs>
		<mask maskUnits="userSpaceOnUse" x="0.5" y="-13.7" width="30.5" height="34.5" id="mask-2_2_">
			<g class="st3">
				<path id="path-1_2_" class="st1" d="M15.4-44.8c-1.9,0-10.1,0.3-14.9,3.6v62c4.8,3.3,12.9,3.6,14.9,3.6h0.8
					c1.9,0,10.1-0.3,14.9-3.6v-62c-4.8-3.3-12.9-3.6-14.9-3.6H15.4z"/>
			</g>
		</mask>
		<polygon id="Fill-17" class="st4" points="31.1,-13.7 0.5,7 0.5,20.8 31.1,0.1 		"/>
		<defs>
			<filter id="Adobe_OpacityMaskFilter_2_" filterUnits="userSpaceOnUse" x="0.5" y="-41.2" width="30.5" height="34.5">
				<feColorMatrix  type="matrix" values="1 0 0 0 0  0 1 0 0 0  0 0 1 0 0  0 0 0 1 0"/>
			</filter>
		</defs>
		<mask maskUnits="userSpaceOnUse" x="0.5" y="-41.2" width="30.5" height="34.5" id="mask-2_3_">
			<g class="st5">
				<path id="path-1_3_" class="st1" d="M15.4-44.8c-1.9,0-10.1,0.3-14.9,3.6v62c4.8,3.3,12.9,3.6,14.9,3.6h0.8
					c1.9,0,10.1-0.3,14.9-3.6v-62c-4.8-3.3-12.9-3.6-14.9-3.6H15.4z"/>
			</g>
		</mask>
		<polygon id="Fill-20" class="st6" points="31.1,-27.4 31.1,-41.2 0.5,-20.6 0.5,-6.7 		"/>
		<defs>
			<filter id="Adobe_OpacityMaskFilter_3_" filterUnits="userSpaceOnUse" x="0.6" y="-68.9" width="30.5" height="34.5">
				<feColorMatrix  type="matrix" values="1 0 0 0 0  0 1 0 0 0  0 0 1 0 0  0 0 0 1 0"/>
			</filter>
		</defs>
		<mask maskUnits="userSpaceOnUse" x="0.6" y="-68.9" width="30.5" height="34.5" id="mask-2_5_">
			<g class="st7">
				<path id="path-1_5_" class="st1" d="M15.4-72.5c-1.9,0-10.1,0.3-14.9,3.6v62c4.8,3.3,12.9,3.6,14.9,3.6h0.8
					c1.9,0,10.1-0.3,14.9-3.6v-62c-4.8-3.3-12.9-3.6-14.9-3.6H15.4z"/>
			</g>
		</mask>
		<polygon id="Fill-20_1_" class="st8" points="31.1,-55.1 31.1,-68.9 0.6,-48.3 0.6,-34.4 		"/>
	</g>
	<g id="Group-26_1_" transform="translate(72.249135, 25.497716)">
		<defs>
			<filter id="Adobe_OpacityMaskFilter_4_" filterUnits="userSpaceOnUse" x="0.5" y="124.5" width="30.5" height="34.5">
				<feColorMatrix  type="matrix" values="1 0 0 0 0  0 1 0 0 0  0 0 1 0 0  0 0 0 1 0"/>
			</filter>
		</defs>
		<mask maskUnits="userSpaceOnUse" x="0.5" y="124.5" width="30.5" height="34.5" id="mask-2_8_">
			<g class="st9">
				<path id="path-1_8_" class="st1" d="M15.4,93.3c-1.9,0-10.1,0.3-14.9,3.6v62c4.8,3.3,12.9,3.6,14.9,3.6h0.8
					c1.9,0,10.1-0.3,14.9-3.6v-62c-4.8-3.3-12.9-3.6-14.9-3.6H15.4z"/>
			</g>
		</mask>
		<polygon id="Fill-17_3_" class="st10" points="31.1,124.5 0.5,145.2 0.5,158.9 31.1,138.2 		"/>
		<defs>
			<filter id="Adobe_OpacityMaskFilter_5_" filterUnits="userSpaceOnUse" x="0.5" y="96.8" width="30.5" height="34.5">
				<feColorMatrix  type="matrix" values="1 0 0 0 0  0 1 0 0 0  0 0 1 0 0  0 0 0 1 0"/>
			</filter>
		</defs>
		<mask maskUnits="userSpaceOnUse" x="0.5" y="96.8" width="30.5" height="34.5" id="mask-2_7_">
			<g class="st11">
				<path id="path-1_7_" class="st1" d="M15.4,65.7c-1.9,0-10.1,0.3-14.9,3.6v62c4.8,3.3,12.9,3.6,14.9,3.6h0.8
					c1.9,0,10.1-0.3,14.9-3.6v-62c-4.8-3.3-12.9-3.6-14.9-3.6H15.4z"/>
			</g>
		</mask>
		<polygon id="Fill-17_2_" class="st12" points="31.1,96.8 0.5,117.5 0.5,131.3 31.1,110.6 		"/>
		<defs>
			<filter id="Adobe_OpacityMaskFilter_6_" filterUnits="userSpaceOnUse" x="0.5" y="69.3" width="30.5" height="34.5">
				<feColorMatrix  type="matrix" values="1 0 0 0 0  0 1 0 0 0  0 0 1 0 0  0 0 0 1 0"/>
			</filter>
		</defs>
		<mask maskUnits="userSpaceOnUse" x="0.5" y="69.3" width="30.5" height="34.5" id="mask-2_4_">
			<g class="st13">
				<path id="path-1_4_" class="st1" d="M15.4,65.7c-1.9,0-10.1,0.3-14.9,3.6v62c4.8,3.3,12.9,3.6,14.9,3.6h0.8
					c1.9,0,10.1-0.3,14.9-3.6v-62c-4.8-3.3-12.9-3.6-14.9-3.6H15.4z"/>
			</g>
		</mask>
		<polygon id="Fill-20_3_" class="st14" points="31.1,83.1 31.1,69.3 0.5,89.9 0.5,103.8 		"/>
		<defs>
			<filter id="Adobe_OpacityMaskFilter_7_" filterUnits="userSpaceOnUse" x="0.6" y="41.6" width="30.5" height="34.5">
				<feColorMatrix  type="matrix" values="1 0 0 0 0  0 1 0 0 0  0 0 1 0 0  0 0 0 1 0"/>
			</filter>
		</defs>
		<mask maskUnits="userSpaceOnUse" x="0.6" y="41.6" width="30.5" height="34.5" id="mask-2_1_">
			<g class="st15">
				<path id="path-1_1_" class="st1" d="M15.4,37.9c-1.9,0-10.1,0.3-14.9,3.6v62c4.8,3.3,12.9,3.6,14.9,3.6h0.8
					c1.9,0,10.1-0.3,14.9-3.6v-62c-4.8-3.3-12.9-3.6-14.9-3.6H15.4z"/>
			</g>
		</mask>
		<polygon id="Fill-20_2_" class="st16" points="31.1,55.3 31.1,41.6 0.6,62.2 0.6,76.1 		"/>
	</g>
</g>
</svg>
