<?xml version="1.0" encoding="utf-8"?>
<!-- Generator: Adobe Illustrator 22.1.0, SVG Export Plug-In . SVG Version: 6.00 Build 0)  -->
<svg version="1.1" id="Layer_1" xmlns="http://www.w3.org/2000/svg" xmlns:xlink="http://www.w3.org/1999/xlink" x="0px" y="0px"
	 viewBox="0 0 185 141" style="enable-background:new 0 0 185 141;" xml:space="preserve">
<style type="text/css">
	.st0{fill:#BFBB50;}
	.st1{fill:#FEFEFE;}
</style>
<g>
	<path id="Fill-45" class="st0" d="M70.7,54.7l2-2.2l-23.8,0.9l2.5,1.7l0.4,31.5l-2.4,0.6l2.4,1.7l0.4,14.7l-2.3,1.6l8.2-0.3
		l-0.3-23.6l3.6-0.3c0,0,0.7-2.5,3-4.6l-6.7,0.3l-0.4-19.1l7.3-0.2L65,85.6L62.8,86l2.2,2.1l0.5,16.5l8-0.4l-1.9-1.7L70.7,54.7z"/>
	<path id="Fill-47" class="st1" d="M69.5,53.5l2-2.2l-23.8,0.9l2.5,1.7l0.4,31.5L48.2,86l2.4,1.7l0.4,14.7l-2.3,1.6l8.2-0.3
		l-0.3-23.6l3.6-0.3c0,0,0.7-2.5,3-4.6l-6.7,0.3l-0.4-19.1l7.3-0.2l0.4,28.2l-2.2,0.4l2.2,2.1l0.5,16.5l8-0.4l-1.9-1.7L69.5,53.5z"
		/>
</g>
</svg>
