<?xml version="1.0" encoding="utf-8"?>
<!-- Generator: Adobe Illustrator 22.1.0, SVG Export Plug-In . SVG Version: 6.00 Build 0)  -->
<svg version="1.1" id="Layer_1" xmlns="http://www.w3.org/2000/svg" xmlns:xlink="http://www.w3.org/1999/xlink" x="0px" y="0px"
	 viewBox="0 0 185 141" style="enable-background:new 0 0 185 141;" xml:space="preserve">
<style type="text/css">
	.st0{fill:#BFBB50;}
	.st1{fill:#FEFEFE;}
</style>
<g>
	<path id="Fill-45" class="st0" d="M27.8,85.8c1.1-0.6,2.8-1.4,4.3-1.7c2-0.4,3.9-0.4,3.9-0.4v6.9l-1.7,0.8l1.7,0.9v12.5l-8.2,7
		V85.8z M41,107l2.2-0.5l-1.6-1.6L41.5,85l-3.7-2.2l3.8-3L41.4,56l1.7-2c0,0-3.5,0.1-6.3,0c-2.8-0.1-9.6-2.9-13.7-3.4
		c-4.2-0.5-14.6,2.1-14.6,2.1c4.5-0.8,13.8,2.6,13.8,2.6v30c0,0,1.8-1.1,2.7-1.6c1.1-0.5,2.8-1.1,2.8-1.1l0.1-25.7l8.3,2.3V82
		c-1.8,0.1-5.8,0.3-10.9,2.8c-1.4,0.7-2.6,1.5-4.2,2.5c-3.5,2.3-17.1,13.1-19.4,28.4c-1.9,12.7,6.3,16.4,6.5,17.5
		c0.5,2.5-0.1,3.9-0.1,3.9s1.1-1.1,1.6-2.2c0.2-0.3,0.3-1.3,0.3-1.3c2.2,0.4,9.6,1.4,18.7-4.1c3-1.8,6.2-4.2,8.4-6.8
		c3.3-3.9,4.7-7.7,4.7-7.7c-3.9,8.4-14.6,15.2-22.7,14.9c-5.9-0.2-10.2-3.2-11.6-10.4c-0.1-0.6-0.4-2.6-0.3-4.5
		c0.1-2.4,0.5-4.9,0.9-6C12.6,95.1,22,89.1,22,89.1v6.1l-2.4,1.3l2.5,1.3l0,22.3l-5.6,7.6L41,107z"/>
	<path id="Fill-47" class="st1" d="M26.6,84.5c1.1-0.6,2.8-1.4,4.3-1.7c2-0.4,3.9-0.4,3.9-0.4v6.9l-1.7,0.8l1.7,0.9v12.5l-8.2,7
		V84.5z M39.7,105.7l2.2-0.5l-1.6-1.6l-0.1-19.9l-3.7-2.2l3.8-3l-0.2-23.7l1.7-2c0,0-3.5,0.1-6.3,0s-9.6-2.9-13.7-3.4
		c-4.2-0.5-14.6,2.1-14.6,2.1C11.6,50.6,21,54,21,54v30c0,0,1.8-1.1,2.7-1.6c1.1-0.5,2.8-1.1,2.8-1.1l0.1-25.7l8.3,2.3v22.8
		C33,80.8,29,81,23.9,83.5c-1.4,0.7-2.6,1.5-4.2,2.5c-3.5,2.3-17.1,13.1-19.4,28.4c-1.9,12.7,6.3,16.4,6.5,17.5
		c0.5,2.5-0.1,3.9-0.1,3.9s1.1-1.1,1.6-2.2c0.2-0.3,0.3-1.3,0.3-1.3c2.2,0.4,9.6,1.4,18.7-4.1c3-1.8,6.2-4.2,8.4-6.8
		c3.3-3.9,4.7-7.7,4.7-7.7c-3.9,8.4-14.6,15.2-22.7,14.9c-5.9-0.2-10.2-3.2-11.6-10.4c-0.1-0.6-0.4-2.6-0.3-4.5
		c0.1-2.4,0.5-4.9,0.9-6c4.8-14.1,14.2-20.1,14.2-20.1v6.1l-2.4,1.3l2.5,1.3l0,22.3l-5.6,7.6L39.7,105.7z"/>
</g>
</svg>
