<?xml version="1.0" encoding="utf-8"?>
<!-- Generator: Adobe Illustrator 22.1.0, SVG Export Plug-In . SVG Version: 6.00 Build 0)  -->
<svg version="1.1" id="Layer_1" xmlns="http://www.w3.org/2000/svg" xmlns:xlink="http://www.w3.org/1999/xlink" x="0px" y="0px"
	 viewBox="0 0 7.7 5.9" style="enable-background:new 0 0 7.7 5.9;" xml:space="preserve">
<style type="text/css">
	.st0{fill:#BFBB50;}
	.st1{fill:#FEFEFE;}
</style>
<g>
	<path id="Fill-40" class="st0" d="M1.8,3.5l0.5-0.4L1.8,2.7V0.4H0.9L0.2,0.9v0.6h0.7v1.3L0.5,3.1l0.5,0.4v1.6H0.2v0.8h2.2V5.1H1.8
		V3.5z M4.9,0.4l-1,0.9v0.9h0.8V1.6l0.5-0.5h1.1l0.5,0.5v0.7L6.4,2.7H5.2v0.8h1.2l0.5,0.4v0.7L6.4,5.1H5.2L4.7,4.6V4.1H3.9V5l1,0.9
		h1.8l1-0.9V3.5L7.1,3.1l0,0l0.6-0.4V1.3l-1-0.9H4.9z"/>
	<path id="Fill-43" class="st1" d="M1.5,3.2L2,2.8L1.5,2.4V0H0.7L0,0.5v0.6h0.7v1.3L0.2,2.8l0.5,0.4v1.6H0v0.8h2.2V4.8H1.5V3.2z
		 M4.7,0l-1,0.9v0.9h0.8V1.3L5,0.8h1.2l0.5,0.5v0.7L6.1,2.3H5v0.8h1.2l0.5,0.4v0.7L6.1,4.7H5L4.4,4.3V3.7H3.6v0.9l1,0.9h1.8l1-0.9
		V3.2L6.9,2.7l0,0l0.6-0.4V0.9L6.4,0H4.7z"/>
</g>
</svg>
