<?xml version="1.0" encoding="utf-8"?>
<!-- Generator: Adobe Illustrator 22.1.0, SVG Export Plug-In . SVG Version: 6.00 Build 0)  -->
<svg version="1.1" id="Layer_1" xmlns="http://www.w3.org/2000/svg" xmlns:xlink="http://www.w3.org/1999/xlink" x="0px" y="0px"
	 viewBox="0 0 185 141" style="enable-background:new 0 0 185 141;" xml:space="preserve">
<style type="text/css">
	.st0{fill:#BFBB50;}
</style>
<g id="Group-13_1_" transform="translate(67.889273, 0.584221)">
	<path id="Fill-3_1_" class="st0" d="M35.5,92.9c-5.4,3.8-15.3,3.6-15.3,3.6s-9.8,0.2-15.3-3.6c0,0-2.4,3.4,0,5.2
		c1.8,1.4,8.1,3.2,15.3,3.3c7.1-0.1,13.4-1.9,15.3-3.3C37.9,96.4,35.5,92.9,35.5,92.9"/>
	<path id="Fill-9_1_" class="st0" d="M24.7,114.9c0,0,3.1-4.2,1-8.3c2.1-0.2,4.2-0.6,6.5-1.4C32,107,30.2,113.4,24.7,114.9
		 M8.3,105.9c1.9,4,2.8,5.5,6.4,8.6C14.7,114.4,9.5,112.2,8.3,105.9 M20.2,116.8c13,0,14.1-13.8,14.1-13.8s-4.5,2.6-14.1,2.7
		S5.7,103,5.7,103S7.3,116.8,20.2,116.8"/>
	<path id="Fill-11_1_" class="st0" d="M17.4,117.6h5.3c0,0,0,2-2.6,2C17.6,119.6,17.4,117.6,17.4,117.6"/>
	<path class="st0" d="M1.5,61h1.4v35.2l-0.4,0.1c-0.1,0.1-0.7,0.8-0.7,3.7c0,3.5,2.1,4.9,2.2,4.9l0.2,0.2l0.1,0.3
		C6.9,117.9,16.1,119,16.5,119l0.4,0l0.2,0.3c0.6,1.2,1.5,1.2,2.7,1.2c0.2,0,0.4,0,0.6,0c1.2,0,2.1-0.1,2.7-1.2l0.2-0.3l0.4,0
		c0.1,0,9.7-1.1,12.3-13.7l0.1-0.3l0.2-0.2c0.1-0.1,2.2-1.5,2.2-4.9c0-2.9-0.6-3.6-0.7-3.7l-0.4-0.1V61h1.4v34.3
		c0.5,0.5,1.2,1.7,1.2,4.7c0,3.6-1.9,5.4-2.6,5.9c-1.5,6.9-5.1,10.4-7.8,12.2c-2.4,1.6-4.5,2.1-5.4,2.2c-1.1,1.7-2.8,1.6-3.7,1.6
		c-0.2,0-0.3,0-0.5,0c-0.9,0-2.7,0-3.7-1.6c-0.8-0.1-3-0.6-5.4-2.2c-2.7-1.8-6.2-5.3-7.8-12.2c-0.7-0.5-2.6-2.4-2.6-5.9
		c0-3,0.6-4.2,1.2-4.7V61z"/>
</g>
</svg>
