<?xml version="1.0" encoding="utf-8"?>
<!-- Generator: Adobe Illustrator 22.1.0, SVG Export Plug-In . SVG Version: 6.00 Build 0)  -->
<svg version="1.1" id="Layer_1" xmlns="http://www.w3.org/2000/svg" xmlns:xlink="http://www.w3.org/1999/xlink" x="0px" y="0px"
	 viewBox="0 0 185 141" style="enable-background:new 0 0 185 141;" xml:space="preserve">
<style type="text/css">
	.st0{fill:#BFBB50;}
	.st1{fill:#FEFEFE;}
</style>
<g>
	<path id="Fill-45" class="st0" d="M175.5,115.7c-2.3-15.3-15.9-26.1-19.4-28.4c-1.5-1-2.8-1.9-4.2-2.5c-5.1-2.5-9.1-2.7-10.9-2.8
		V59.2l8.3-2.3l0.1,7.7c0,0,1.7,0.6,2.8,1.1c0.9,0.4,2.7,1.6,2.7,1.6V55.2c0,0,9.3-3.4,13.8-2.6c0,0-10.5-2.6-14.6-2.1
		c-4.2,0.5-10.9,3.3-13.7,3.4c-2.8,0.1-6.3,0-6.3,0l1.7,2l-0.3,28.1c0,0,4.3-0.6,5.7-0.5c1,0,1.8,0.1,3.9,0.4
		c1.5,0.3,3.2,0.8,4.3,1.5l0,26.2l-8.2-7v-4.4l1.7-0.9l-7.2-4.6l0,10l-1.6,1.6l2.2,0.5l24.4,20.7l-5.6-7.6l0-22.3l2.5-1.3l-2.4-1.3
		v-6.1c0,0,9.5,6,14.2,20.1c0.4,1.1,0.8,3.6,0.9,6c0,2-0.2,3.9-0.3,4.5c-1.4,7.2-5.7,10.2-11.6,10.4c-8.1,0.3-18.8-6.5-22.7-14.9
		c0,0,1.4,3.8,4.7,7.7c2.1,2.5,5.4,5,8.4,6.8c9.1,5.5,16.5,4.5,18.7,4.1c0,0,0.2,1,0.3,1.3c0.5,1.1,1.6,2.2,1.6,2.2
		s-0.6-1.3-0.1-3.9C169.3,132.1,177.5,128.4,175.5,115.7z"/>
	<path id="Fill-47" class="st1" d="M174.3,113.8c-2.3-15.3-15.9-26.1-19.4-28.4c-1.5-1-2.8-1.9-4.2-2.5c-5.1-2.5-9.1-2.7-10.9-2.8
		V57.3l8.3-2.3l0.1,7.7c0,0,1.7,0.6,2.8,1.1c0.9,0.4,2.7,1.6,2.7,1.6V53.4c0,0,9.3-3.4,13.8-2.6c0,0-10.5-2.6-14.6-2.1
		c-4.2,0.5-10.9,3.3-13.7,3.4s-6.3,0-6.3,0l1.7,2l-0.3,28.1c0,0,4.3-0.6,5.7-0.5c1,0,1.8,0.1,3.9,0.4c1.5,0.3,3.2,0.8,4.3,1.5
		l0,26.2l-8.2-7v-4.4l1.7-0.9l-7.2-4.6l0,10l-1.6,1.6l2.2,0.5l24.4,20.7l-5.6-7.6l0-22.3l2.5-1.3l-2.4-1.3v-6.1c0,0,9.5,6,14.2,20.1
		c0.4,1.1,0.8,3.6,0.9,6c0,2-0.2,3.9-0.3,4.5c-1.4,7.2-5.7,10.2-11.6,10.4c-8.1,0.3-18.8-6.5-22.7-14.9c0,0,1.4,3.8,4.7,7.7
		c2.1,2.5,5.4,5,8.4,6.8c9.1,5.5,16.5,4.5,18.7,4.1c0,0,0.2,1,0.3,1.3c0.5,1.1,1.6,2.2,1.6,2.2s-0.6-1.3-0.1-3.9
		C168,130.2,176.2,126.5,174.3,113.8z"/>
</g>
</svg>
