<?xml version="1.0" encoding="utf-8"?>
<!-- Generator: Adobe Illustrator 22.1.0, SVG Export Plug-In . SVG Version: 6.00 Build 0)  -->
<svg version="1.1" id="Layer_1" xmlns="http://www.w3.org/2000/svg" xmlns:xlink="http://www.w3.org/1999/xlink" x="0px" y="0px"
	 viewBox="0 0 185 141" style="enable-background:new 0 0 185 141;" xml:space="preserve">
<style type="text/css">
	.st0{fill:#231F20;}
</style>
<path id="Fill-38" class="st0" d="M117.3,114.7v2.3h2.2l0.7-0.9v-0.6l-0.7-0.9H117.3z M77.1,118.3v2.3h2.3l0.7-0.9V119l-0.7-0.7
	H77.1z M92.1,115.6l-0.7-0.8h-2.2v2.3h2.2l0.7-0.9V115.6z M110.5,114.7l-0.9,0.7v4.4l0.9,0.7h1.9l0.9-0.7v-4.4l-0.9-0.7H110.5z
	 M80,116.2v-0.6l-0.7-0.9h-2.2v2.3h2.2L80,116.2z M63.9,118.5h2.5l-1.2-3.4L63.9,118.5z M57.2,118.3v2.3h2.3l0.7-0.9V119l-0.7-0.7
	H57.2z M73.4,115.6l-0.7-0.8h-2.2v2.3h2.2l0.7-0.9V115.6z M60.1,116.2v-0.6l-0.7-0.9h-2.2v2.3h2.2L60.1,116.2z M121.4,116.7
	l-1.3,1.5h-2.8v3.5h-1.2v-3.5l-0.7-0.6l0.7-0.6v-3.5h4l1.3,1.5V116.7z M114.5,118.3v2.1l-1.5,1.4H110l-1.5-1.4v-2.1l-0.7-0.6
	l0.7-0.6v-2.2l1.5-1.4h2.9l1.5,1.4v2.2l0.7,0.6L114.5,118.3z M106.9,118.3v3.5h-1.2v-3.5h-3.4v3.5h-1.2v-3.5l-0.7-0.6l0.7-0.6v-3.5
	h1.2v3.5h3.4v-3.5h1.2v3.5l0.7,0.6L106.9,118.3z M99.9,120.4l-1.5,1.4h-2.8l-1.5-1.4v-1.5h1.2v0.9l0.9,0.7h1.8l0.9-0.7v-0.9
	l-0.9-0.7h-2.1l-1.5-1.4v-1.9l1.5-1.4h2.6l1.5,1.4v1.4h-1.2v-0.9l-0.8-0.7h-1.7l-0.8,0.7v0.9l0.8,0.7h2.2l1.5,1.4V120.4z
	 M92.4,121.7l-1.7-3.5h-1.5v3.5H88v-3.5l-0.7-0.6l0.7-0.6v-3.5h4l1.3,1.5v1.6l-1.3,1.5l1.7,3.5H92.4z M87.3,114.7h-3.8v2.3h2.9v1.2
	h-2.9v2.3h3.8v1.2h-5v-3.5l-0.7-0.6l0.7-0.6v-3.5h5V114.7z M81.3,120.2l-1.3,1.5h-4.1v-3.5l-0.7-0.6l0.7-0.6v-3.5h4l1.3,1.5v1.6
	l-0.8,0.9l0.8,0.9V120.2z M73.7,121.7l-1.7-3.5h-1.5v3.5h-1.2v-3.5l-0.7-0.6l0.7-0.6v-3.5h4l1.3,1.5v1.6l-1.3,1.5l1.7,3.5H73.7z
	 M67.6,121.7l-0.8-2.1h-3.4l-0.8,2.1h-1.3l1.3-3.5l-0.6-0.6l1-0.5l1.4-3.6h1.3l3.1,8.2H67.6z M61.4,120.2l-1.3,1.5H56v-3.5l-0.7-0.6
	l0.7-0.6v-3.5h4l1.3,1.5v1.6l-0.8,0.9l0.8,0.9V120.2z"/>
</svg>
