<?xml version="1.0" encoding="utf-8"?>
<!-- Generator: Adobe Illustrator 22.1.0, SVG Export Plug-In . SVG Version: 6.00 Build 0)  -->
<svg version="1.1" id="Layer_1" xmlns="http://www.w3.org/2000/svg" xmlns:xlink="http://www.w3.org/1999/xlink" x="0px" y="0px"
	 viewBox="0 0 185 141" style="enable-background:new 0 0 185 141;" xml:space="preserve">
<style type="text/css">
	.st0{fill:#BFBB50;}
</style>
<g>
	<path id="Fill-27" class="st0" d="M60.8,39.9c-3,0.2-6,1.3-6,1.3s3.1,0.7,6.1,0.5c3-0.2,6.4-1.3,6.4-1.3S63.9,39.7,60.8,39.9z
		 M51.7,40.2c0,0-23.1,2.4-34.1,3.1l0,0.2c11-0.7,34.2-1,34.2-1l-0.1-1.1L51.7,40.2z M68.9,39c-0.7,0-1.3,0.7-1.3,1.4
		c0,0.7,0.7,1.3,1.4,1.3c0.7,0,1.3-0.7,1.3-1.4C70.3,39.5,69.7,39,68.9,39z M53.2,40c-0.7,0-1.3,0.7-1.2,1.4c0,0.7,0.7,1.3,1.4,1.2
		c0.7,0,1.3-0.7,1.2-1.4C54.5,40.5,53.9,40,53.2,40z"/>
	<path id="Fill-29" class="st0" d="M133.3,40.2l-0.1,1.2l-0.1,1.1c0,0,23.2,0.3,34.2,1l0-0.2C156.4,42.7,133.3,40.2,133.3,40.2
		 M131.8,40c-0.7,0-1.3,0.5-1.4,1.2c0,0.7,0.5,1.3,1.2,1.4c0.7,0,1.3-0.5,1.4-1.2C133.1,40.7,132.6,40,131.8,40 M116.1,39
		c-0.7,0-1.4,0.5-1.4,1.3c0,0.7,0.5,1.4,1.3,1.4c0.7,0,1.4-0.5,1.4-1.3C117.4,39.7,116.8,39,116.1,39 M117.7,40.4
		c0,0,3.4,1.1,6.4,1.3c3,0.1,6.1-0.5,6.1-0.5s-3-1-6-1.3C121.1,39.7,117.7,40.4,117.7,40.4"/>
</g>
</svg>
