<?xml version="1.0" encoding="utf-8"?>
<!-- Generator: Adobe Illustrator 22.1.0, SVG Export Plug-In . SVG Version: 6.00 Build 0)  -->
<svg version="1.1" id="Layer_1" xmlns="http://www.w3.org/2000/svg" xmlns:xlink="http://www.w3.org/1999/xlink" x="0px" y="0px"
	 viewBox="0 0 32 32" style="enable-background:new 0 0 32 32;" xml:space="preserve">
<style type="text/css">
	.st0{fill:#232022;}
</style>
<path class="st0" d="M31.9,17.5c0-0.4,0.1-0.7,0.1-1.1c0-0.6-0.4-1-1-1c0,0,0,0,0,0c0,0,0,0,0,0c0.5-0.1,0.9-0.6,0.9-1.1
	c0-0.4-0.1-0.7-0.1-1.1c-0.1-0.5-0.6-0.9-1.2-0.8c0,0,0,0,0,0l0,0c0.5-0.2,0.8-0.7,0.7-1.3c-0.1-0.3-0.2-0.7-0.4-1
	c-0.2-0.5-0.8-0.8-1.3-0.6c0,0,0,0,0,0l0,0c0.5-0.3,0.7-0.9,0.4-1.4c-0.2-0.3-0.4-0.6-0.5-0.9c-0.3-0.5-0.9-0.6-1.4-0.3c0,0,0,0,0,0
	c0,0,0,0,0,0c0.4-0.4,0.5-1,0.1-1.4c-0.2-0.3-0.5-0.5-0.7-0.8c-0.4-0.4-1-0.4-1.4,0l0,0c0,0,0,0,0,0c0.3-0.4,0.3-1.1-0.2-1.4
	C25.6,3.2,25.3,3,25,2.8c-0.5-0.3-1.1-0.2-1.4,0.3l0,0c0,0,0,0,0,0c0.2-0.5,0-1.1-0.4-1.3c-0.3-0.2-0.6-0.3-1-0.4
	c-0.5-0.2-1.1,0-1.3,0.5c0,0,0,0,0,0c0,0,0,0,0,0c0.1-0.5-0.2-1.1-0.7-1.2c-0.3-0.1-0.7-0.2-1-0.2c-0.5-0.1-1.1,0.2-1.2,0.8
	c0,0,0,0,0,0c0,0,0,0,0,0c0-0.6-0.4-1-0.9-1.1c-0.4,0-0.8-0.1-1.2,0c0,0-0.1,0-0.2,0c-0.4,0-0.7,0-1.1,0.1c-0.6,0-1,0.5-0.9,1.1
	c0,0,0,0,0,0c0,0,0,0,0,0c-0.1-0.5-0.7-0.9-1.2-0.8c-0.3,0.1-0.7,0.2-1,0.3c-0.5,0.2-0.8,0.7-0.7,1.2c0,0,0,0,0,0l0,0
	C10.6,1.4,10,1.2,9.5,1.4c-0.3,0.1-0.6,0.3-1,0.5C8,2.1,7.9,2.7,8.1,3.2c0,0,0,0,0,0c0,0,0,0,0,0C7.8,2.8,7.2,2.6,6.7,3
	C6.4,3.2,6.1,3.4,5.9,3.6C5.4,4,5.4,4.6,5.7,5c0,0,0,0,0,0c0,0,0,0,0,0c-0.4-0.4-1-0.4-1.4,0C4.1,5.3,3.8,5.6,3.6,5.9
	C3.3,6.3,3.3,6.9,3.8,7.3c0,0,0,0,0,0c0,0,0,0,0,0C3.3,7,2.7,7.1,2.4,7.6C2.2,7.9,2,8.2,1.8,8.5C1.6,9,1.8,9.6,2.3,9.9c0,0,0,0,0,0
	c0,0,0,0,0,0C1.7,9.7,1.2,10,1,10.5c-0.1,0.3-0.2,0.7-0.3,1c-0.2,0.5,0.1,1.1,0.7,1.2c0,0,0,0,0,0c0,0,0,0,0,0
	c-0.5-0.1-1.1,0.3-1.1,0.8c-0.1,0.3-0.1,0.7-0.1,1.1c0,0.6,0.4,1,0.9,1.1c0,0,0,0,0,0c0,0,0,0,0,0c-0.6,0-1,0.5-1,1
	c0,0.4,0,0.7,0.1,1.1c0.1,0.5,0.6,0.9,1.1,0.9c0,0,0,0,0,0c0,0,0,0,0,0c-0.5,0.1-0.9,0.7-0.7,1.2c0.1,0.3,0.2,0.7,0.3,1
	c0.2,0.5,0.7,0.8,1.3,0.6c0,0,0,0,0,0c0,0,0,0,0,0c-0.5,0.2-0.7,0.8-0.5,1.3c0.2,0.3,0.3,0.6,0.5,0.9c0.3,0.5,0.9,0.6,1.4,0.4
	c0,0,0,0,0,0c-0.4,0.3-0.5,1-0.2,1.4c0.2,0.3,0.4,0.6,0.7,0.8c0.4,0.4,1,0.5,1.4,0.1c0,0,0,0,0,0c0,0,0,0,0,0C5,27,5,27.6,5.4,28
	c0.3,0.2,0.5,0.5,0.8,0.7c0.4,0.3,1.1,0.3,1.4-0.2c0,0,0,0,0,0c0,0,0,0,0,0C7.4,29,7.5,29.6,8,29.9c0.3,0.2,0.6,0.3,0.9,0.5
	c0.5,0.2,1.1,0,1.3-0.5c0,0,0,0,0,0c0,0,0,0,0,0c-0.2,0.5,0.1,1.1,0.6,1.3c0.3,0.1,0.7,0.2,1,0.3c0.5,0.1,1.1-0.2,1.2-0.7
	c0,0,0,0,0,0c0,0,0,0,0,0c-0.1,0.5,0.3,1,0.9,1.1c0.4,0,0.7,0.1,1.1,0.1c0,0,0,0,0.1,0c0.5,0,1-0.4,1-0.9c0,0,0,0,0,0c0,0,0,0,0,0
	c0,0.5,0.5,1,1.1,0.9c0.4,0,0.7-0.1,1.1-0.1c0.5-0.1,0.9-0.6,0.8-1.1c0,0,0,0,0,0c0,0,0,0,0,0c0.2,0.5,0.7,0.8,1.2,0.7
	c0.3-0.1,0.7-0.2,1-0.3c0.5-0.2,0.8-0.8,0.6-1.3c0,0,0,0,0,0c0,0,0,0,0,0c0.3,0.5,0.9,0.7,1.3,0.4c0.3-0.2,0.6-0.3,0.9-0.5
	c0.5-0.3,0.6-0.9,0.3-1.4c0,0,0,0,0,0c0,0,0,0,0,0c0.3,0.4,1,0.5,1.4,0.2c0.3-0.2,0.5-0.5,0.8-0.7c0.4-0.4,0.4-1,0.1-1.4
	c0,0,0,0,0,0c0,0,0,0,0,0c0.4,0.4,1.1,0.3,1.4-0.1c0.2-0.3,0.4-0.6,0.7-0.8c0.3-0.4,0.2-1.1-0.2-1.4c0,0,0,0,0,0c0,0,0,0,0,0
	c0.5,0.3,1.1,0.1,1.4-0.4c0.2-0.3,0.3-0.6,0.5-1c0.2-0.5,0-1.1-0.5-1.3c0,0,0,0,0,0c0,0,0,0,0,0c0.5,0.2,1.1-0.1,1.2-0.7
	c0.1-0.3,0.2-0.7,0.3-1c0.1-0.5-0.2-1.1-0.8-1.2c0,0,0,0,0,0h0C31.4,18.5,31.9,18.1,31.9,17.5z M30.7,18.4c-0.5-0.1-1,0.3-1.1,0.8
	c-0.1,0.3-0.1,0.6-0.2,0.9c-0.2,0.5,0.1,1,0.6,1.2c-0.5-0.2-1,0.1-1.2,0.5c-0.1,0.3-0.3,0.6-0.4,0.8c-0.2,0.5-0.1,1,0.3,1.3
	c-0.4-0.2-1-0.1-1.3,0.3c-0.2,0.3-0.4,0.5-0.6,0.7c-0.3,0.4-0.3,1,0,1.3c-0.4-0.3-1-0.3-1.3,0c-0.2,0.2-0.5,0.4-0.7,0.6
	c-0.4,0.3-0.5,0.9-0.2,1.3c-0.3-0.4-0.9-0.5-1.3-0.2c-0.3,0.2-0.5,0.3-0.8,0.5c-0.5,0.2-0.7,0.8-0.5,1.2c-0.2-0.4-0.7-0.7-1.2-0.5
	c-0.3,0.1-0.6,0.2-0.9,0.3c-0.5,0.1-0.8,0.6-0.7,1.1c-0.1-0.5-0.6-0.8-1.1-0.7c-0.3,0-0.6,0.1-0.9,0.1c-0.5,0-0.9,0.5-0.9,1
	c0-0.5-0.4-0.9-0.9-0.9c-0.3,0-0.6,0-0.9-0.1c0,0-0.1,0-0.1,0c-0.5,0-0.9,0.3-1,0.8c0.1-0.5-0.2-1-0.7-1.1c-0.3-0.1-0.6-0.2-0.9-0.3
	c-0.5-0.2-1,0.1-1.2,0.5c0.2-0.5,0-1-0.5-1.2c-0.3-0.1-0.6-0.3-0.8-0.4c-0.4-0.3-1-0.1-1.3,0.3c0.3-0.4,0.2-1-0.2-1.3
	c-0.2-0.2-0.5-0.4-0.7-0.6c-0.4-0.3-1-0.3-1.3,0c0.3-0.4,0.4-0.9,0-1.3c-0.2-0.2-0.4-0.5-0.6-0.7C4.5,24,4,23.9,3.5,24.2
	c0.4-0.3,0.5-0.8,0.3-1.3c-0.2-0.3-0.3-0.5-0.4-0.8c-0.2-0.5-0.8-0.7-1.2-0.5c0.5-0.2,0.7-0.7,0.5-1.2c-0.1-0.3-0.2-0.6-0.3-0.9
	c-0.1-0.5-0.6-0.8-1.1-0.7c0.5-0.1,0.8-0.6,0.8-1.1C2.1,17.3,2,17,2,16.7c0-0.5-0.4-0.9-0.9-1c0.5,0,0.9-0.4,1-0.9
	c0-0.3,0.1-0.6,0.1-0.9c0.1-0.5-0.2-1-0.7-1.1c0.5,0.1,1-0.2,1.1-0.7c0.1-0.3,0.2-0.6,0.3-0.9c0.2-0.5,0-1-0.5-1.2
	c0.5,0.2,1,0,1.3-0.5c0.1-0.3,0.3-0.5,0.5-0.8c0.3-0.4,0.2-1-0.2-1.3c0.4,0.3,1,0.2,1.3-0.2c0.2-0.2,0.4-0.5,0.6-0.7
	c0.4-0.4,0.4-0.9,0-1.3c0.4,0.4,0.9,0.4,1.3,0.1C7.4,5,7.6,4.8,7.9,4.6c0.4-0.3,0.5-0.9,0.3-1.3C8.5,3.7,9,3.9,9.5,3.6
	c0.3-0.1,0.6-0.3,0.8-0.4C10.8,3,11,2.5,10.8,2c0.2,0.5,0.7,0.7,1.2,0.6c0.3-0.1,0.6-0.2,0.9-0.2c0.5-0.1,0.8-0.6,0.8-1.1
	c0.1,0.5,0.6,0.8,1.1,0.8c0.3,0,0.6,0,0.9,0c0,0,0.1,0,0.1,0c0.3,0,0.7,0,1.1,0c0.5,0,1-0.3,1-0.8c0,0.5,0.3,1,0.8,1.1
	c0.3,0.1,0.6,0.1,0.9,0.2c0.5,0.1,1-0.1,1.2-0.6c-0.2,0.5,0.1,1,0.6,1.2c0.3,0.1,0.6,0.3,0.8,0.4c0.5,0.2,1,0.1,1.3-0.3
	c-0.2,0.4-0.1,1,0.3,1.3c0.3,0.2,0.5,0.4,0.8,0.6c0.4,0.3,1,0.3,1.3-0.1c-0.3,0.4-0.3,1,0.1,1.3c0.2,0.2,0.4,0.5,0.6,0.7
	C27,7.3,27.6,7.4,28,7.1c-0.4,0.3-0.5,0.9-0.2,1.3c0.2,0.3,0.3,0.5,0.5,0.8c0.2,0.4,0.8,0.6,1.2,0.4c-0.4,0.2-0.6,0.8-0.5,1.2
	c0.1,0.3,0.2,0.6,0.3,0.9c0.2,0.5,0.6,0.8,1.1,0.7c-0.5,0.1-0.8,0.6-0.7,1.1c0.1,0.3,0.1,0.6,0.1,0.9c0.1,0.5,0.5,0.9,1,0.9
	c-0.5,0-0.9,0.5-0.9,1c0,0.3,0,0.6-0.1,0.9C29.9,17.8,30.2,18.3,30.7,18.4z M19.7,15.4c0.2-0.7-0.1-1.5-0.5-2.2
	c-0.4-0.5-1-0.7-1.6-0.9c0.1-0.2,0.1-0.5,0.1-0.7c0-0.7-0.2-1.5-0.6-2c-0.5-0.7-1.2-0.8-2-0.8C14.9,8.8,14.9,9,15,9
	c0.6,0.6,1,1.7,0.6,2.5c-0.1,0.2-0.3,0.5-0.5,0.6c-0.7,0.1-1.4,0.4-2,0.9c-0.6,0.5-0.8,1.3-0.8,2c0,0.1,0,0.2,0,0.3
	c-1.9,0.3-2.3,3-1.1,4.2c1.8,1.7,4.3,1.9,6.6,1.7c0.6-0.1,1.2-0.2,1.6-0.5c0.1,0,0.2,0,0.2,0c1.5-0.3,2.3-2,1.9-3.4
	C21.4,16.3,20.6,15.6,19.7,15.4z M16,3C8.8,3,3,8.8,3,16c0,7.2,5.8,13,13,13c7.2,0,13-5.8,13-13C29,8.8,23.2,3,16,3z M15.5,4
	L5.2,10.9C7,7,10.9,4.2,15.5,4z M16.5,28l10.3-6.9C25,25,21.1,27.8,16.5,28z M27.4,19.7L15.1,28C8.9,27.5,4,22.3,4,16
	c0-1.3,0.2-2.6,0.6-3.7L16.9,4C23.1,4.5,28,9.7,28,16C28,17.3,27.8,18.6,27.4,19.7z"/>
</svg>
