<?xml version="1.0" encoding="utf-8"?>
<!-- Generator: Adobe Illustrator 22.1.0, SVG Export Plug-In . SVG Version: 6.00 Build 0)  -->
<svg version="1.1" id="Layer_1" xmlns="http://www.w3.org/2000/svg" xmlns:xlink="http://www.w3.org/1999/xlink" x="0px" y="0px"
	 viewBox="0 0 48.1 268" style="enable-background:new 0 0 48.1 268;" xml:space="preserve">
<style type="text/css">
	.st0{fill-rule:evenodd;clip-rule:evenodd;fill:#202020;}
</style>
<path class="st0" d="M20,192c0,2.2,1.8,4,4,4c2.2,0,4-1.8,4-4s-1.8-4-4-4C21.8,188,20,189.8,20,192z M24,188c1.3-5.3,2-10.7,2-16
	s-0.7-10.7-2-16c-1.3,5.3-2,10.7-2,16S22.7,182.7,24,188z M24,268l2-70l-2-2l-2,2L24,268z M24,0l-2,70l2,2l2-2L24,0z M43,88
	c0.6,0,1-0.4,1-1s-0.4-1-1-1h-3.5c0.1-1.1-0.2-2.1-0.8-3c-1.5-2.2-5-3.5-10.7-3.8V76c0-2.2-1.8-4-4-4c-2.2,0-4,1.8-4,4v3.1
	c-5.7,0.4-9.2,1.6-10.7,3.8c-0.6,0.9-0.8,1.9-0.8,3H5c-0.6,0-1,0.4-1,1s0.4,1,1,1h3v52H5c-0.6,0-1,0.4-1,1s0.4,1,1,1h3.6
	c0,1.1,0.2,2.1,0.8,3c1.5,2.2,5,3.4,10.6,3.8v3.1c0,2.2,1.8,4,4,4c2.2,0,4-1.8,4-4v-3.1c5.6-0.4,9.1-1.6,10.6-3.8
	c0.6-0.9,0.8-1.9,0.8-3H43c0.6,0,1-0.4,1-1s-0.4-1-1-1h-3V88H43z M37,143.9c-1,1.4-4,3.1-13,3.1s-12-1.7-13-3.1
	c-0.4-0.5-0.5-1.2-0.5-1.9h26.9C37.5,142.7,37.3,143.4,37,143.9z M12,140V88h24v52H12z M10.5,86c-0.1-0.7,0.1-1.4,0.4-1.9
	c1-1.4,4-3.1,13-3.1s12.1,1.7,13,3.1c0.4,0.5,0.5,1.2,0.4,1.9H10.5z M7.5,152l-1.7,1.5v1.5h1.3V154l0.9-0.7h1.8l0.9,0.7v1l-0.9,0.6
	H8v1.3h1.9l0.9,0.7v1.2l-0.9,0.7H8l-0.9-0.7v-0.9H5.8v1.5l1.7,1.5h2.8l1.7-1.5v-2.3l-0.9-0.8l0,0l0.9-0.7v-2.2l-1.7-1.5H7.5z
	 M2.4,157.1l0.7-0.6l-0.7-0.6V152H1.1L0,152.8v1h1.1v2l-0.7,0.6l0.7,0.6v2.6H0v1.3h3.6v-1.3H2.4V157.1z M47.2,72.6v-2.8l-2-1.8H42
	l-2,1.8v2.8l2,1.6l3.5,0l0,2.1l-1.1,1h-1.8l-1.1-0.9v-1.3H40v2l2,1.8h3.1l2-1.8v-2.9l0.9-0.8L47.2,72.6z M45.6,72.6h-3.1l-0.9-0.8
	v-1.4l1.1-0.9h1.8l1.1,1V72.6z"/>
</svg>
