<?xml version="1.0" encoding="utf-8"?>
<!-- Generator: Adobe Illustrator 22.1.0, SVG Export Plug-In . SVG Version: 6.00 Build 0)  -->
<svg version="1.1" id="Layer_1" xmlns="http://www.w3.org/2000/svg" xmlns:xlink="http://www.w3.org/1999/xlink" x="0px" y="0px"
	 viewBox="0 0 27.4 66" style="enable-background:new 0 0 27.4 66;" xml:space="preserve">
<style type="text/css">
	.st0{fill-rule:evenodd;clip-rule:evenodd;fill:#BFBB50;}
</style>
<path class="st0" d="M17.4,0.7L14.1,4l3.8-2.7c0.1,0.5,0.1,0.9,0.2,1.4l-4,4l4.2-3c0.1,0.4,0.1,0.9,0.2,1.3l-4.4,4.4l4.6-3.3
	c0.1,0.4,0.1,0.8,0.2,1.2l-4.8,4.8l5-3.6c0.1,0.3,0.1,0.7,0.2,1l-5.2,5.2l5.5-3.9c0,0.2,0.1,0.4,0.1,0.5c0,0.1,0.1,0.2,0.1,0.3
	l-4.4,4.4l4.9-3.5c0.3,0.5,0.7,1,1.1,1.5l-3.4,3.4l3.9-2.8c0.2,0.3,0.5,0.6,0.7,0.9l-4.6,4.6l5.2-3.7c0.2,0.3,0.4,0.5,0.5,0.7
	l-5.7,5.7l6.2-4.4c0.1,0.2,0.2,0.5,0.2,0.7l-6.4,6.4l6.9-4.9c0.1,0.2,0.1,0.4,0.2,0.6l-7,7l7.4-5.3c0.7,3.8,0.6,6.7,1.6,10.3
	c0.3,1,0.4,2.1,0,3.1c-1.4,3.4-3.9,1.4-4.1,1.6c-0.2,0.2,2.2,3,1.5,4.8c-0.6,1.3-2,2.4-3.5,2c-0.4-0.1-0.2,2-0.7,3.5
	c-0.1,0.2-0.7,2.5-2.8,2.9c-0.6,0.1-2.2-0.4-3.2-1.2c-1.5-1.2-3.1-4.8-3.4-4.7c-0.2,0,0,5,0.9,9.4c0.5,2.4,1,4,1.7,5.6
	c0.5,1,1.3,4.4-0.7,5.6c-1.3,0.7-3-2.1-3.4-3c-0.9-2.7-2.3-5.3-3.2-8.1c-0.7-2-1-4.9-1.7-6.9c0.1,1-2.4,2.6-4.1,1.5
	c-0.5-0.3,0.4-3.1,0.4-3.5c0.2-2,0.1-6.8-0.2-10.4c-0.1-1.3-0.6-2.3-0.7-3.1c-0.3-5.3,1.3-10.8,3-15.3c0.3-0.7-0.4-2.1-0.7-3.6
	c-0.1-0.9,0.3-2.8,0.1-3.9c-0.3-1.4-0.7-2.9-1-4.4c0,0,0-0.1,0-0.1C2,4.3,2.8,3.4,3.7,2.8c2.2-1.5,5.2-2.1,7.9-2.5
	c1.7-0.3,3.6-0.4,5.1,0.1c0.2,0.1,0.3,0.1,0.5,0.2C17.1,0.6,17.3,0.7,17.4,0.7z"/>
</svg>
