<?xml version="1.0" encoding="utf-8"?>
<!-- Generator: Adobe Illustrator 22.1.0, SVG Export Plug-In . SVG Version: 6.00 Build 0)  -->
<svg version="1.1" id="Layer_1" xmlns="http://www.w3.org/2000/svg" xmlns:xlink="http://www.w3.org/1999/xlink" x="0px" y="0px"
	 viewBox="0 0 65.9 64" style="enable-background:new 0 0 65.9 64;" xml:space="preserve">
<style type="text/css">
	.st0{fill:none;stroke:#BFBB50;stroke-width:2;stroke-linecap:round;stroke-linejoin:round;stroke-miterlimit:10;}
</style>
<g>
	<path class="st0" d="M39.8,20.2c0,0-0.7,1.9,0.9,1.8c0.9-0.1,2.5-2,3.1-2.5c0.5-0.5,1.9-2.2,2.2-2.7c0.3-0.5,1.8-4.9,2-5.8
		c0.2-0.9-0.6-5.8-0.6-5.8s0.6-2.9-0.7-3.8c-0.8-0.5-2-0.6-3.9-0.5c-1.9,0.2-6.1,0-10.7,0.8c-4.6,0.8-7,2.5-7,2.5s-2.7,1.1-3,1.7
		c-0.8,1.8-1.4,4.8-1.4,4.8s-9,13.2-13.6,23.6C2.5,45,2.8,50,2.8,50s-1.9,3.2-1.8,5c0.1,2.5,2.5,4.4,6.6,4.7c4.1,0.3,8.8,2.1,18.4,3
		c9.6,0.9,16.1-0.8,22.9-3.1c6.9-2.3,12.3-2.6,12.3-2.6s5-1.9,3.3-14.8c-0.3-2.3-3.2-9.6-7.7-8.6c-4.5,1.1-9.8,3.8-9.8,3.8
		s-4.1-2.2-10-1.1c-5.8,1-7.9,4.5-8.8,5c-0.9,0.5-4.2,0.5-6.1,1.3c-2.5,1.1-4.4,3.8-4.4,3.8"/>
	<path class="st0" d="M43.8,19.6c0,0-0.4,1.3-0.2,1.8c0.3,0.5,1.1,0.7,1.5,0.4c0.5-0.3,2.2-2.2,2.9-2.8c0.7-0.5,1.1-1.9,1.6-2.6
		c0.4-0.7,1.5-2.5,1.7-3.3c0.3-0.9-0.1-2.3-0.4-4.6c-0.3-2.3-0.4-4.6-1.1-5.8C49.2,1.4,47.2,2,47.2,2"/>
	<path class="st0" d="M46.7,20.3c0,0,1.9,1,2.9,1.3c1,0.3,2.2,0.1,2.4-1.5c0.2-1.6-2.4-3.8-2.4-3.8"/>
	<path class="st0" d="M37.1,19c0,0-0.6,1-0.2,1.6c0.4,0.6,1.4,1,3-0.3c0.6-0.5,2.1-3.4,2.1-3.4s1.7-2.4,1.9-3.2
		c0.2-0.8,0.1-2.4,0.1-2.4s0.1-1.1,0.1-2.1c-0.1-1-0.2-1.6-0.2-2.8c0-1.2-0.2-2.2-0.5-2.9c-0.4-0.7-1.4-1.1-1.4-1.1"/>
	<path class="st0" d="M40.3,5.7c1,1.3,0.5,3,0.4,4.1c-0.1,1.1-0.4,3.8-0.4,3.8l-1.1,3.1c0,0-1.1,1.5-2.1,2.3
		c-0.8,0.6-1.9,0.8-2.2-0.3c-0.4-1.1,1.1-2.1,1.1-2.1l0.7-1.4L36,12.9c0.2-1,0.6-1.6,0.6-1.6"/>
	<path class="st0" d="M36,12.9c0,0-0.7,0.2-1.2-0.7c-0.5-0.9-0.2-1.9-0.2-1.9"/>
	<path class="st0" d="M36.3,14c0,0-1.2,0.2-1.8-0.1L34,13.5l-1.1-0.8c0,0-1,0.2-1.7,0.2c-0.7,0-1-0.1-1-0.1s-0.2,0.7-0.5,1.2
		c-0.2,0.4-0.8,0.8-0.8,0.8s-1.9,4-2.8,7.6c-0.9,3.7-4.1,12.1-4.1,12.1"/>
	<path class="st0" d="M24.8,26.9c0,0,0.4,4.3,0.8,8.7c0.4,4.4,0.4,6.2,0.4,6.2"/>
	<path class="st0" d="M61.3,57c0,0-5.4,1.9-6.6-6.3c-0.4-3.1-1.2-9.9-0.8-12.7c0.7-4.6,3-4.4,3-4.4"/>
</g>
</svg>
