<?xml version="1.0" encoding="utf-8"?>
<!-- Generator: Adobe Illustrator 22.1.0, SVG Export Plug-In . SVG Version: 6.00 Build 0)  -->
<svg version="1.1" id="Layer_1" xmlns="http://www.w3.org/2000/svg" xmlns:xlink="http://www.w3.org/1999/xlink" x="0px" y="0px"
	 viewBox="0 0 140.8 20" style="enable-background:new 0 0 140.8 20;" xml:space="preserve">
<style type="text/css">
	.st0{fill:#231F20;}
</style>
<path class="st0" d="M20.2,2.3L14.6,18h2.5l1.4-4.2h6L26,18h2.6L22.9,2.3H20.2z M19.2,11.8l2.3-6.9h0.1l2.3,6.9H19.2z M9.9,9.5V9.4
	C11.8,9,13.3,7.1,13.3,5c0-3-2.3-5-5.7-5H0v20h7.6c4.3,0,6.8-2.1,6.8-5.6C14.3,11.7,12.6,9.8,9.9,9.5z M2.5,2.2H7
	c2.4,0,3.8,1.1,3.8,3.1c0,2.2-1.6,3.3-4.6,3.3H2.5V2.2z M7.2,17.8H2.5v-7h4.4c3.2,0,4.8,1.2,4.8,3.5S10.2,17.8,7.2,17.8z M41.6,7.1
	c0-2.9-2-4.8-5.2-4.8h-6.1V18h2.4v-6h3.4l3.2,6h2.8l-3.5-6.4C40.5,10.9,41.6,9.2,41.6,7.1z M36.1,10h-3.4V4.3h3.4c1.9,0,3,1.1,3,2.8
	C39.1,8.9,38,10,36.1,10z M107.9,8.9h-8.1V2.3h-2.4V18h2.4v-7h8.1v7h2.4V2.3h-2.4V8.9z M120.1,2c-4.5,0-7.4,3.1-7.4,8.1
	c0,5,2.8,8.1,7.4,8.1c4.5,0,7.4-3.1,7.4-8.1C127.4,5.1,124.6,2,120.1,2z M120.1,16.1c-3,0-4.9-2.3-4.9-6c0-3.7,1.9-6,4.9-6
	s4.9,2.3,4.9,6C124.9,13.8,123,16.1,120.1,16.1z M135.6,2.3h-5.9V18h2.4v-5.4h3.4c3.1,0,5.2-2.1,5.2-5.2
	C140.8,4.4,138.7,2.3,135.6,2.3z M135,10.6h-2.8V4.3h2.8c2.1,0,3.3,1.1,3.3,3.1S137.1,10.6,135,10.6z M90.6,9.1l-1.7-0.4
	c-2-0.4-2.8-1.2-2.8-2.3c0-1.4,1.4-2.3,3.2-2.3c1.9,0,3.2,1,3.4,2.5H95C94.9,3.9,92.6,2,89.3,2c-3.3,0-5.7,1.8-5.7,4.5
	c0,2.3,1.4,3.7,4.6,4.4l1.7,0.4c2.1,0.5,2.9,1.2,2.9,2.4c0,1.4-1.4,2.4-3.4,2.4c-2.1,0-3.6-0.9-3.8-2.5h-2.4
	c0.2,2.8,2.5,4.6,6.1,4.6c3.7,0,6-1.9,6-4.8C95.2,11.1,93.9,9.8,90.6,9.1z M81.5,7.1c0-2.9-2-4.8-5.2-4.8h-6.1V18h2.4v-6H76l3.2,6
	H82l-3.5-6.4C80.4,10.9,81.5,9.2,81.5,7.1z M76.1,10h-3.4V4.3H76c1.9,0,3,1.1,3,2.8C79,8.9,78,10,76.1,10z M57.7,18h10v-2.1h-7.5V11
	h7.1V9h-7.1V4.4h7.5V2.3h-10V18z M52.1,9.7L52.1,9.7c1.6-0.3,2.8-1.8,2.8-3.5c0-2.4-1.8-3.9-4.6-3.9H44V18h6.3
	c3.3,0,5.4-1.7,5.4-4.4C55.6,11.4,54.2,9.9,52.1,9.7z M46.4,4.3h3.2c1.8,0,2.8,0.8,2.8,2.3c0,1.6-1.2,2.4-3.3,2.4h-2.7V4.3z
	 M49.8,16h-3.4v-5.2h3.2c2.3,0,3.5,0.9,3.5,2.6S52,16,49.8,16z"/>
</svg>
