<?xml version="1.0" encoding="utf-8"?>
<!-- Generator: Adobe Illustrator 22.1.0, SVG Export Plug-In . SVG Version: 6.00 Build 0)  -->
<svg version="1.1" id="Layer_1" xmlns="http://www.w3.org/2000/svg" xmlns:xlink="http://www.w3.org/1999/xlink" x="0px" y="0px"
	 viewBox="0 0 64.2 62" style="enable-background:new 0 0 64.2 62;" xml:space="preserve">
<style type="text/css">
	.st0{fill:none;stroke:#BFBB50;stroke-width:2;stroke-linecap:round;stroke-linejoin:round;stroke-miterlimit:10;}
</style>
<g>
	<path class="st0" d="M25.2,19.3c0,0,0.7,1.9-0.9,1.8c-1-0.1-2.5-1.9-3.1-2.4c-0.5-0.5-1.9-2.1-2.2-2.6c-0.3-0.5-1.8-4.8-2-5.7
		c-0.2-0.9,0.9-5.2,0.9-5.2s-0.6-2.8,0.7-3.7c0.8-0.5,2-0.6,3.9-0.5c1.9,0.2,6.1,0,10.8,0.8c4.6,0.8,6.7,2,6.7,2s2.7,1,3,1.7
		c0.8,1.7,2.2,5.3,2.2,5.3S53.4,21.2,58,31.4c4.6,10.2,4.4,17,4.4,17s0.9,2.2,0.9,3.9c-0.1,2.5-1.6,5.2-5.7,5.5
		c-4.1,0.3-8.8,2-18.5,2.9c-9.6,0.9-15.2-0.5-22-2.7c-6.9-2.2-13.3-2.9-13.3-2.9s-4,1.3-2.3-11.3c0.3-2.2,2.2-12.5,6.7-11.5
		c4.5,1,9.9,3.7,9.9,3.7s5.5-1.8,11.4-0.8c5.8,1,6.6,4.1,7.4,4.6c0.9,0.5,4.2,0.5,6.1,1.3c2.6,1,2.1,3.9,2.1,3.9"/>
	<path class="st0" d="M21.2,18.7c0,0,0.4,1.2,0.2,1.7c-0.3,0.5-1.1,0.7-1.5,0.4c-0.5-0.3-2.2-2.2-2.9-2.7c-0.7-0.5-1.1-1.8-1.6-2.6
		c-0.4-0.7-1.5-2.4-1.7-3.3c-0.3-0.9,0.4-1.9,0.8-4.1c0.3-2.2,0.4-4.5,1.1-5.6C16.2,1.4,18.1,2,18.1,2"/>
	<path class="st0" d="M18.3,19.4c0,0-0.9,0.7-1.9,1c-1,0.3-2.4-0.3-2.6-1.8c-0.2-1.5,1.6-3,1.6-3"/>
	<path class="st0" d="M28,18.1c0,0,0.6,0.9,0.2,1.5c-0.4,0.6-1.4,1-3-0.3c-0.6-0.5-2.1-3.4-2.1-3.4s-1.7-2.3-1.9-3.1
		c-0.2-0.8-0.1-2.3-0.1-2.3S21,9.4,21,8.4c0.1-1,0.6-1.1,0.5-2.3c0-1.2,0.2-2.1,0.5-2.8"/>
	<path class="st0" d="M25.1,5.6c-1,1.3-0.8,2.5-0.7,3.5c0.1,1,0.4,3.7,0.4,3.7l1.1,3c0,0,1.1,1.5,2.1,2.3c0.8,0.6,1.9,0.8,2.2-0.2
		c0.4-1.1-1.1-2.1-1.1-2.1l-0.7-1.4l0.6-2.3l1.9-1.9"/>
	<path class="st0" d="M28.7,13.2c0,0,1.2,0.2,1.8-0.1l0.5-0.4l1.4-1c0,0,0.6,0.5,1.4,0.5c0.7,0,1.2,0.6,1.5,1
		c0.2,0.3,0.8,0.7,0.8,0.7s1.9,3.9,2.8,7.4c0.9,3.6,1.4,4.4,1.4,4.4"/>
	<path class="st0" d="M40.3,25.8c0,0-0.5,4.2-0.8,8.5C39,38.5,39,40.3,39,40.3"/>
	<path class="st0" d="M3.7,55.1c0,0,6.7,1.8,7.9-6.2c0.4-3,0-9.6-0.5-12.3c-0.7-4.5-3-4.3-3-4.3"/>
</g>
</svg>
