<svg version="1.2" xmlns="http://www.w3.org/2000/svg" viewBox="0 0 153 252" width="153" height="252">
	<title>img_8-svg</title>
	<style>
		.s0 { fill: none;stroke: #bfbb50;stroke-linecap: round;stroke-linejoin: round;stroke-width: 2 } 
		.s1 { fill: #bfbb50 } 
		.s2 { fill: none;stroke: #bfbb50;stroke-width: 2 } 
	</style>
	<g id="Layer">
		<path id="Layer" class="s0" d="m2.4 99.5c1.4-1.3 7.9-2.5 14.7 1.3 6.7 3.8 10.3 10.5 9.6 13.1-0.7 2.6-9.8 1.8-12.1 1.1-2.2-0.7-5.1-3.9-6.2-4.3-1.1-0.4-6.8-2.5-7.2-4.6-0.4-2.2-0.2-5.2 1.2-6.6z"/>
		<path id="Layer" class="s0" d="m2.4 99.5c0 0 4.8-7.7 6.4-13.4 1.6-5.7 2.8-10 8.7-12.9 5.9-2.9 10-3.4 10-3.4 0 0 3.5-3.8 11.1-7.2 7.6-3.4 12.7-5.6 15.4-10.4"/>
		<path id="Layer" class="s0" d="m93.8 61.1c0 0 13.6-0.7 15-0.6 1.4 0.1 1.2 1.5 1.2 1.5 0 0 4-1.4 8.9 1 12.9 6.4 17 28.1 17 28.1 0 0 6.8 7 8.7 10.7 2 3.7 1 7.1 1.5 7.9 0.5 0.8 5.6 7 5 9.2-0.6 2.2-2.8 7.3-9.3 8.9-6.5 1.6-12.7 0-12.7 0 0 0-4.5-7-6.6-15.2-2.1-8.2-4.6-12.4-5.2-13-0.6-0.6-3.4 9.5-6.9 14-3.5 4.5-8.3 11.8-8.3 11.8 0 0 0 8.5-1.9 13-1.9 4.5-6.5 8.8-6.5 8.8 0 0 1.4 7.3 1 11.5-0.3 4.2-2.4 6-2.4 6 0 0 0.5 1.9 0 4.3-0.5 2.4-1.2 4.2-1.2 4.2 0 0 2.9 9 2.8 16.2-0.1 7.2-1.2 13.1-1.2 13.1 0 0 5 8.2 7.6 17.6 2.6 9.4 2.3 18.8 2.3 18.8 0 0-5 4.4-15.2 6.4-10.2 2-10.5 0.1-16.1-0.6-5.6-0.7-9.8-0.3-11.1-4.5-1.3-4.2-3.4-11.8-3.7-19.7-0.3-7.9-1.6-16.5-1.6-16.5 0 0-0.8 15.3-3.6 20.2-2.8 4.9-3.8 11.4-3.8 11.4"/>
		<path id="Layer" class="s0" d="m53.8 215c0 0 2.1 12.2 1.8 19.8-0.2 7.7 0 9.3-1.8 11.3-1.9 2-9.5 2.4-11.2 2.8-1.7 0.5-8.2 2.3-12.9 2-4.8-0.3-6.8-1.6-7.9-6.3-1.2-4.7-4.7-19.3-5.8-32.4-1.2-13.1-4-19.8-3-28.2 1-8.4 5.5-17 6.3-18.3 0.8-1.3 0-6.1 0.5-9l0.5-2.9c0 0-1.4-6.3 0.6-10.2 2-3.9 7.3-7.1 7.3-8.1 0-1 0.7-5.3 0.7-5.3 0 0-1.9-1.1-2.3-4-0.4-2.9 0.5-4.6 0.5-4.6 0 0-1.6-1.5-1.9-3.3-0.3-1.8-0.2-3-0.2-3"/>
		<path id="Layer" class="s0" d="m28.6 130.2l5.5 1.4 6.1 3.7"/>
		<path id="Layer" class="s0" d="m26.8 121.6h5l5.2 3.3"/>
		<path id="Layer" class="s0" d="m26.7 113.9c0 0 1.7-2.2 2.9-5.9 1.2-3.8-1.7-14.8-1.7-14.8 0 0 2.3 8.9 12.7 10.4 10.4 1.5 20.8 1.8 24.4 1.3 3.6-0.5 3.4-4.2 3.4-4.2"/>
		<path id="Layer" class="s0" d="m28 111.8l4.9 1 7 6.2"/>
		<path id="Layer" class="s0" d="m54.5 108.6c0 0-4.2 1.9-9 3.2-4.8 1.3-12.6 1-12.6 1"/>
		<path id="Layer" class="s0" d="m117.3 99.7c0 0-2.3-4.6-3.4-7.1-1.1-2.6-1.7-13.4-1.7-13.4 0 0 0.3 8.3-0.8 10.8-1.1 2.5-10.3 11.8-13.4 14.1-3.1 2.2-13.2 2-18.9 1.4-5.7-0.6-5.6-4.5-5.6-4.5"/>
		<path id="Layer" class="s0" d="m20.1 153.9l13.4 2.8c0 0 2.5 6.3 5.4 11.2 2.9 4.9 7.2 8.8 7.2 8.8"/>
		<path id="Layer" class="s0" d="m40.2 170.8l9.9 9c0 0 2.2 7.4 3.3 8.6 1.1 1.3 2.4 1.9 2.4 1.9"/>
		<path id="Layer" class="s0" d="m55 184.3c0 0 2.5 0.2 4.1-1.9 1.6-2.1 2.4-8.3 2.4-8.3 0 0 7.6-2.8 11.7-6.1 4.1-3.3 7.6-7.8 7.6-7.8l8.5-4.5"/>
		<path id="Layer" class="s0" d="m93.8 147.2l-7.8 10"/>
		<path id="Layer" class="s0" d="m99.4 103c-1.4 1.3 0 4.7 0 4.7 0 0-3.6 1.8-3.9 4.4-0.2 2.6 2.8 3.3 2.8 3.3 0 0-3.4 0.7-3.3 3.3 0 2.6 2.1 3.1 2.3 5 0.1 1.9-2.2 3.1-2.2 3.1 0 0 1.8 3.4-1.3 7.5-3.1 4-6.6 12.2-6.6 12.2"/>
		<path id="Layer" class="s0" d="m65.7 115.4c-2.9 0.9-10.8 5.5-13.3 6.3-2.5 0.7-4.9-3.2-4.9-3.2"/>
		<path id="Layer" class="s0" d="m89.8 121.7c-1.8 0.1-2.2-1.7-5.2-3.2-3-1.5-6.6-2.6-8.9-3.1-2.3-0.5-2.2-4.7-2.2-4.7"/>
		<path id="Layer" class="s0" d="m67 129.1c0 0-0.5 2.5-1.4 3-0.8 0.6-9.8 2.7-14.5 2.9-4.7 0.2-4.7-6.7-4.7-6.7"/>
		<path id="Layer" class="s0" d="m82.8 136.8c0 0-7.3-2.8-8.9-3.3-1.5-0.5-1.6-4.7-1.6-4.7"/>
		<path id="Layer" class="s0" d="m44.6 139c0 0 1 1.7 1.4 4.6 0.4 3 1 14.4 1 14.4"/>
		<path id="Layer" class="s0" d="m66.2 152.6l0.9-5.1"/>
		<path id="Layer" class="s0" d="m54.5 61.7c0 0-0.6-7.4-0.2-13 0.5-5.7 2.3-9.9 2.3-9.9 0 0-2.8-1.4-1.9-6.7 0.9-5.3 2.4-6.7 4-6.4 1.6 0.2 3.3 4.3 3.3 4.3l4 3.4"/>
		<path id="Layer" class="s0" d="m55.9 32.6c0 0 0.7-5 2.1-5 2.7 0 1.8 5.5 1.8 5.5 0 0-1.7-0.6-2.4 0.8-0.7 1.4 0.5 2.4 0.5 2.4"/>
		<path id="Layer" class="s0" d="m60 31.6l-2-1.6"/>
		<path id="Layer" class="s0" d="m82.2 45.5c2.2 0.5 5-0.7 7.3 0 0.9 0.3 0.3 2.1-0.6 2.2-1 0.1-1.4-0.6-3.3-1.2-1.8-0.7-3.7-0.5-4.7-2.1-1-1.6 1.4-2.4 1.4-2.4"/>
		<path id="Layer" class="s0" d="m100.7 20.2c0 0 1.1 7.3 0.1 11.1-1 3.8-2.2 3.7-2.2 3.7-0.9 0.2-1.5-0.9-2.4-1.1-0.9-0.2-4.7-0.5-5.2 1.9-0.5 2.5 0.5 3.6 0.2 5.3-0.3 1.8-1.4 5.8-1.4 5.8"/>
		<path id="Layer" class="s0" d="m85.1 27.3c0 0 1.9 2.4 4 3.5"/>
		<path id="Layer" class="s0" d="m94.2 47.7c0.5-3.1-0.6-7.3-0.6-7.3l4.3-5.5"/>
		<path id="Layer" class="s0" d="m61.1 32.7l4 2.6"/>
		<path id="Layer" class="s0" d="m59.8 35.3l4.4 2.2"/>
		<path id="Layer" class="s0" d="m59.2 37.5l5.9 2.1"/>
		<path id="Layer" class="s0" d="m59 40.2l7.7 1.5"/>
		<path id="Layer" class="s0" d="m84.4 74.9c0 0 0.5 1.6-1.3 2.3-1.8 0.7-2.4 0.3-2.4 0.3"/>
		<path id="Layer" class="s0" d="m80.9 76.1c0 0 0.3 3-1.9 3.5-2.2 0.5-3-0.2-3-0.2"/>
		<path id="Layer" class="s0" d="m76.8 76.9c0 0 0.5 3.4-2.9 3.7-3.3 0.3-3.9-2.2-3.9-2.2 0 0-2.6 0.3-3.4-0.3-0.9-0.6-0.7-2.7-0.7-2.7"/>
		<path id="Layer" class="s0" d="m92.9 51.2c0 0 0.8 0.5 0.8 6.7 0 6.2-2.7 13.6-2.7 13.6 0 0-1.8 3.8-3.8 4.3-2 0.5-2.9 0.3-2.9 0.3"/>
		<path id="Layer" class="s0" d="m67.1 74.9c0 0-0.4 0.6-2.5 0.2-2.1-0.4-1.7-2.8-1.7-2.8 0 0-3.1 0.4-2.7-1.4-1 0.1-2.4-0.6-2.4-2.6 0-2.1 1.5-3.9 1.5-3.9 0 0-1.9 0.2-1.9-1.9 0.1-2 1.3-2.6 1.3-2.6 0 0-1.1-0.4-1.3-2.6-0.2-2.2 1.2-2.6 1.2-2.6 0 0-1-0.3-1-2.5 0-2.2 1.7-3.1 1.7-3.1 0 0-1.8-0.7-1.7-2.5 0.1-1.7 1.5-4.4 1.5-4.4 0.5 0.1 9.6 1.9 9.6 1.9"/>
		<path id="Layer" class="s0" d="m88.5 47.6c0 0 3.6 2.5 4.6 1.2 1.8-2.4-0.7-3.3-1.7-2.6 0.9-0.4 3.1-0.8 2.7 2.6-0.3 3.4-3.6 2.9-3.6 2.9 0 0-0.4 1.5-2.8 1.5-3.3 0-4.3-1.2-4.3-1.2 0 0-1.4 1-4.7 0.6-3.3-0.4-4.4-1.9-4.4-1.9 0 0-1.6-0.3-3.1-1.8-1.5-1.5-2.5-3.3-2.5-5.3 0-2.8 4-3.3 4.2-1.4 0-0.7-1.5-1.2-2.2-0.4-0.7 0.8-0.3 2.2 1.4 3.5 1.6 1.3 3.9 1.7 3.9 1.7 0 0 0.8-0.7 2.3-0.7 1.8 0 3.8-0.9 3.8-0.9"/>
		<path id="Layer" class="s0" d="m58 25.6l0.4-9.1"/>
		<path id="Layer" class="s0" d="m72.8 20.3l-14.4-3.8h-4.3c0 0 3.3-2.4 5.4-4.7 2.1-2.3 4.1-4.4 8.1-6.2"/>
		<path id="Layer" class="s0" d="m62.3 9c0 0 0.2-2.4 3.4-4.7 3.2-2.4 8.7-3.7 16.2-3.1 7.5 0.6 19 6.1 21.3 10.7 2.3 4.6-2.3 8.4-2.3 8.4"/>
		<path id="Layer" class="s0" d="m96.2 5.9c2.5 2.2 5.3 7.2 4.1 9.9-1.2 2.7-4.1 3.5-4.1 3.5"/>
		<path id="Layer" class="s0" d="m89.5 2.9c4.7 2.7 8.4 6.9 6.1 10.8-2.2 3.9-6.1 3.9-6.1 3.9"/>
		<path id="Layer" class="s0" d="m83.9 17.1c0 0 13.4-1.1 11.8-8.4"/>
		<path id="Layer" class="s0" d="m54.1 16.5c0 0 7.4-5 16.3-3.6 8.9 1.4 9.6 5 9.6 5"/>
		<path id="Layer" class="s0" d="m70.9 21c-0.4 0.1-12.5-2.1-12.5-2.1"/>
		<path id="Layer" class="s0" d="m67.1 22.5c-0.3-0.2-8.7-0.7-8.7-0.7"/>
		<path id="Layer" class="s0" d="m65.9 23.8h-7.7"/>
		<path id="Layer" class="s0" d="m65.6 4.2c2.6-1.2 8-2.2 13.9-0.8 5.9 1.5 5.6 5.3 5.6 5.3"/>
		<path id="Layer" class="s0" d="m65.4 68.3c0 0-2.8-0.1-3.5-2-0.7-2 2-3.4 2-3.4 0 0-2.9 0.1-3.2-1.7-0.3-1.8 1.5-3.2 1.5-3.2 0 0-2-0.4-2.2-1.3-0.2-0.9-0.1-2.4 0.9-3.1"/>
		<path id="Layer" class="s0" d="m72 76.1c0 0-1.9 0.7-3-0.2-1-1-0.5-2.9-0.5-2.9 0 0-1.4 0.9-3.2 0.2-1.8-0.7-1.2-2.9-1.2-2.9 0 0-2.7 0.9-3.2-1.2-0.5-2.1 1-2.8 1-2.8"/>
		<path id="Layer" class="s0" d="m66.7 67.3c-1.5-0.6-0.8-2.7-0.8-2.7 0 0-1.4-0.1-2-1.7-0.6-1.6 1.5-3.2 1.5-3.2"/>
		<path id="Layer" class="s0" d="m73.8 73.6l2.3 0.5"/>
		<path id="Layer" class="s0" d="m89.1 66.9c0 0 0.9 1.2 0.4 2.3-0.4 1.1-2.4 1.3-2.4 1.3 0 0 0.7 1.3-0.7 2.1-1.4 0.8-3 0-3 0"/>
		<path id="Layer" class="s0" d="m87.7 67.3l2.6-1"/>
		<path id="Layer" class="s0" d="m84.6 55.7c0 0-0.4 1.2-1.5 1.5-1.1 0.3-1.5 0-1.5 0l-1.9 2.4 0.6-2.6c0 0-0.4-0.2-0.5-0.4-0.1-0.2-0.1-0.9-0.1-0.9"/>
		<g id="Layer">
			<path id="Layer" fill-rule="evenodd" class="s1" d="m75.3 29.5c1.2-1.6 14.2 0.3 14.6 2.7 0.4 2.4-3.4 8.1-7.9 7.3-4.5-0.8-7.8-2.2-8.3-3.7-0.5-1.5 0.4-4.8 1.6-6.3z"/>
			<path id="Layer" fill-rule="evenodd" class="s1" d="m92.4 34c1.7-1.1 4.3-0.6 5.5 0.2 1.1 0.8 1.9 1.9 1.4 2.7-0.5 0.8-4.4 4.9-5.1 5-0.7 0.1-2.5-0.2-2.6-1.6 0-1.5-0.9-5.2 0.8-6.3z"/>
			<path id="Layer" class="s2" d="m94.4 34.9l-5.5-1.7"/>
			<path id="Layer" class="s2" d="m76.9 31.1l-15.7-2.6 14.5 1.7"/>
		</g>
	</g>
</svg>