<?xml version="1.0" encoding="utf-8"?>
<!-- Generator: Adobe Illustrator 22.1.0, SVG Export Plug-In . SVG Version: 6.00 Build 0)  -->
<svg version="1.1" id="Layer_1" xmlns="http://www.w3.org/2000/svg" xmlns:xlink="http://www.w3.org/1999/xlink" x="0px" y="0px"
	 viewBox="0 0 120 8" style="enable-background:new 0 0 120 8;" xml:space="preserve">
<style type="text/css">
	.st0{fill:#FEFEFC;}
</style>
<path id="Oval-2" class="st0" d="M116,8c-2.2,0-4-1.8-4-4s1.8-4,4-4s4,1.8,4,4S118.2,8,116,8z M96,2c5.3,0,10.7,0.7,16,2
	c-5.3,1.3-10.7,2-16,2S85.3,5.3,80,4C85.3,2.7,90.7,2,96,2z M76,8c-2.2,0-4-1.8-4-4s1.8-4,4-4s4,1.8,4,4S78.2,8,76,8z M70,2l2,2
	l-2,2L0,4L70,2z"/>
</svg>
