<?xml version="1.0" encoding="utf-8"?>
<!-- Generator: Adobe Illustrator 22.1.0, SVG Export Plug-In . SVG Version: 6.00 Build 0)  -->
<svg version="1.1" id="Layer_1" xmlns="http://www.w3.org/2000/svg" xmlns:xlink="http://www.w3.org/1999/xlink" x="0px" y="0px"
	 viewBox="0 0 62 82" style="enable-background:new 0 0 62 82;" xml:space="preserve">
<style type="text/css">
	.st0{fill:#FEFEFC;}
</style>
<path class="st0" d="M26.7,24.2l0.7,3.9c0.1,0.5,0.6,0.9,1.2,0.8c0.5-0.1,0.9-0.6,0.8-1.2l-0.7-3.9c-0.4-2.2-1.6-4.3-3.4-5.7
	c-2-1.5-4.4-2.1-7-1.6c-5.5,1-8.1,6.1-7.3,10.4c0.5,2.8,1.7,5.4,3.5,8c0.2,0.3,0.5,0.4,0.8,0.4c0.2,0,0.4-0.1,0.6-0.2
	c0.4-0.3,0.5-1,0.2-1.4c-1.7-2.3-2.7-4.6-3.2-7.1c-0.6-3.3,1.2-7.3,5.7-8.1c2.6-0.4,4.4,0.4,5.4,1.3C25.4,20.8,26.4,22.4,26.7,24.2z
	 M61.1,73.9c-5.5-0.4-11.6,0.7-18.2,3.2c-2.6,1-4.8,1.3-6.8,1.1c-0.2-0.6-0.7-1-1.3-1.2c-0.5-0.1-1.4-0.6-2.9-1.9
	c2.2-1,4.1-2.5,5.3-4.4c1.7-2.8,2.1-6.3,1-10c-1.3-3.7-1.8-8.5-1.6-15.1c0.1-2.2,0.2-4.5,0.5-7.8c0.9-11.3,1-12.7,0.5-15.5
	c-0.7-3.8-3.4-7.3-7.4-9.8l3.5-5C33.9,7,33.8,6.3,33.3,6c-0.5-0.3-1.1-0.2-1.4,0.2l-3.6,5.2c-1.3-0.6-2.7-1.1-4-1.5l0.5-7.6
	c0-0.6-0.4-1-0.9-1.1c-0.6-0.1-1,0.4-1.1,0.9l-0.5,7.3c-1.5-0.2-2.9-0.2-4.3-0.1l-1.4-7.9C16.5,1,16,0.7,15.4,0.8
	c-0.5,0.1-0.9,0.6-0.8,1.2L16,9.8c-1.4,0.3-2.7,0.9-4,1.6L9,4.7C8.8,4.2,8.2,4,7.7,4.2C7.2,4.4,6.9,5,7.2,5.5l3.1,6.9
	C9.1,13.2,8,14.1,7,15.2l-5.2-3.6c-0.5-0.3-1.1-0.2-1.4,0.2c-0.3,0.5-0.2,1.1,0.2,1.4l5,3.5c-3,3.7-4.3,8-3.6,11.8
	c0.5,2.8,1,4.1,5.7,14.4c1.4,3.1,2.3,5.1,3.1,7.2c2.4,6.1,3.6,10.8,3.6,14.8c0.2,3.9,1.8,7,4.4,9.1c2,1.6,4.5,2.4,7.2,2.4
	c0.4,0,0.7,0,1.1-0.1c2.5,2.6,4.6,4.1,6.4,4.6c0.2,0.1,0.4,0.1,0.6,0.1c0.6,0,1.1-0.3,1.5-0.7c0.5,0.1,1,0.1,1.5,0.1
	c2,0,4.1-0.4,6.4-1.3c6.2-2.4,12.1-3.5,17.3-3.1c0.5,0,1-0.4,1.1-0.9C62,74.5,61.6,74,61.1,73.9z M21.4,70.8
	c-1.7-1.3-2.7-3.5-2.9-6.1c0-4.4-1.3-9.5-3.9-16.1c-0.8-2.1-1.8-4.3-3.2-7.4C6.7,31,6.4,30.1,6,27.8c-0.5-2.6,0.6-5.9,2.9-8.7
	c2.4-3,5.6-5,8.8-5.6c3.2-0.6,7,0.2,10.2,2.2c3.1,1.9,5.2,4.6,5.7,7.2c0.4,2.3,0.4,3.2-0.5,14.5c-0.3,3.4-0.4,5.8-0.5,8
	c-0.2,7.1,0.4,12.4,1.8,16.5c0.7,2.5,0.5,4.8-0.6,6.7c-1.1,1.8-3.2,3.1-5.8,3.6C25.5,72.6,23.1,72.1,21.4,70.8z M25.7,58.8
	c-2.2,0.4-3.6,2.5-3.2,4.6c0.4,2.2,2.5,3.6,4.6,3.2c2.2-0.4,3.6-2.5,3.2-4.6C29.9,59.9,27.9,58.5,25.7,58.8z"/>
</svg>
