<?xml version="1.0" encoding="utf-8"?>
<!-- Generator: Adobe Illustrator 22.1.0, SVG Export Plug-In . SVG Version: 6.00 Build 0)  -->
<svg version="1.1" id="Layer_1" xmlns="http://www.w3.org/2000/svg" xmlns:xlink="http://www.w3.org/1999/xlink" x="0px" y="0px"
	 viewBox="0 0 48 34" style="enable-background:new 0 0 48 34;" xml:space="preserve">
<style type="text/css">
	.st0{fill:#FEFEFC;}
</style>
<path class="st0" d="M28.7,21.8l-12.9,6.7l-0.7,0.4c-6.3,3.2-9-0.8-8.3-2.9c0.8-2.7,4.4-2.1,4.7-0.1c0.1,0.5,0.4,0.6,0.4,0.1
	c0-2.7-4.7-3.8-5.8-0.1c-1,3.1,3.3,7.7,10.2,5.1l0.7-0.3l12.9-6.9c4.1-2.2,7.3-0.6,6.6,2.4c-0.1,0.6,0.2,0.6,0.4,0.2
	C38.1,23,33,19.5,28.7,21.8z M13.9,15.6l4-0.6l1.2,2.2l2.4-0.4l-5.7-10l-2.4,0.4l-2.3,11.3l2.4-0.4L13.9,15.6z M15,9.6L15,9.6l2,3.7
	l-2.8,0.4L15,9.6z M30,15.5l-0.3-2l-5.2,0.8l-1.4-8.7L20.7,6l1.7,10.7L30,15.5z M8.2,18.7C8.7,18.5,9,18.3,9.3,18
	c0.3-0.3,0.5-0.7,0.7-1.1c0.1-0.4,0.2-0.9,0.1-1.4c-0.1-0.7-0.4-1.2-0.8-1.6C9,13.4,8.4,13.1,7.7,13c0.4-0.3,0.8-0.7,0.9-1.1
	c0.2-0.4,0.2-0.9,0.2-1.4c-0.1-0.5-0.2-0.9-0.4-1.2C8.2,9.1,7.9,8.8,7.6,8.7C7.2,8.5,6.9,8.4,6.4,8.4S5.5,8.4,5,8.5L0,9.3l1.7,10.7
	l5.2-0.8C7.3,19,7.8,18.9,8.2,18.7z M2.6,10.7l2.2-0.3c0.2,0,0.4,0,0.6,0c0.2,0,0.4,0,0.5,0.1c0.2,0.1,0.3,0.2,0.4,0.3
	c0.1,0.1,0.2,0.3,0.2,0.6c0.1,0.4,0,0.8-0.3,1c-0.2,0.2-0.6,0.4-1,0.5L3,13.2L2.6,10.7z M3.7,17.8l-0.5-2.9l2.6-0.4
	c0.5-0.1,0.9,0,1.3,0.2c0.3,0.2,0.6,0.6,0.6,1.1c0,0.3,0,0.5,0,0.7c-0.1,0.2-0.2,0.4-0.3,0.5c-0.1,0.1-0.3,0.2-0.5,0.3
	c-0.2,0.1-0.4,0.1-0.6,0.2L3.7,17.8z M33.3,12.9L32,4.2l-2.3,0.4l1.7,10.7l7.5-1.2l-0.3-2L33.3,12.9z M48,9.4
	c-0.1-0.6-0.3-1.1-0.6-1.4c-0.3-0.3-0.7-0.6-1.1-0.8c-0.4-0.2-0.8-0.3-1.1-0.3c-0.4,0-0.7-0.1-0.9-0.1c-0.7-0.1-1.3-0.1-1.7-0.2
	c-0.4,0-0.8-0.1-1-0.2c-0.2-0.1-0.4-0.2-0.5-0.3C41,6,40.9,5.9,40.9,5.7c0-0.2,0-0.4,0.1-0.6c0.1-0.2,0.2-0.3,0.3-0.4
	c0.1-0.1,0.3-0.2,0.5-0.3c0.2-0.1,0.4-0.1,0.6-0.1c0.3,0,0.6-0.1,0.8-0.1c0.3,0,0.5,0.1,0.7,0.2c0.2,0.1,0.4,0.2,0.5,0.4
	c0.1,0.2,0.3,0.4,0.3,0.8l2.3-0.4c-0.1-0.6-0.3-1.1-0.6-1.5c-0.3-0.4-0.7-0.7-1.1-0.9c-0.4-0.2-0.9-0.3-1.5-0.4
	c-0.5,0-1.1,0-1.6,0.1c-0.5,0.1-0.9,0.2-1.4,0.4c-0.5,0.2-0.9,0.5-1.2,0.8c-0.3,0.3-0.6,0.7-0.8,1.2c-0.2,0.4-0.2,0.9-0.1,1.5
	c0.1,0.5,0.2,0.9,0.5,1.2C39.3,7.7,39.6,8,40,8.2c0.3,0.2,0.7,0.3,1.1,0.4c0.4,0.1,0.8,0.1,1.2,0.2c0.4,0,0.8,0.1,1.2,0.1
	c0.4,0,0.7,0.1,1.1,0.2c0.3,0.1,0.6,0.2,0.8,0.3s0.3,0.4,0.4,0.7c0,0.3,0,0.5-0.1,0.7c-0.1,0.2-0.3,0.4-0.5,0.5
	c-0.2,0.1-0.4,0.2-0.6,0.3c-0.2,0.1-0.5,0.1-0.7,0.2c-0.3,0-0.6,0.1-0.9,0c-0.3,0-0.6-0.1-0.8-0.2c-0.2-0.1-0.4-0.3-0.6-0.5
	c-0.2-0.2-0.3-0.5-0.3-0.9l-2.3,0.4c0.1,0.7,0.3,1.2,0.6,1.6c0.3,0.4,0.7,0.8,1.2,1c0.5,0.2,1,0.4,1.6,0.4s1.2,0,1.7-0.1
	c0.7-0.1,1.4-0.3,1.9-0.6c0.5-0.3,1-0.6,1.3-0.9c0.3-0.4,0.5-0.8,0.7-1.2C48,10.3,48,9.9,48,9.4z"/>
</svg>
