<?xml version="1.0" encoding="utf-8"?>
<!-- Generator: Adobe Illustrator 22.1.0, SVG Export Plug-In . SVG Version: 6.00 Build 0)  -->
<svg version="1.1" id="Layer_1" xmlns="http://www.w3.org/2000/svg" xmlns:xlink="http://www.w3.org/1999/xlink" x="0px" y="0px"
	 viewBox="0 0 12 12" style="enable-background:new 0 0 12 12;" xml:space="preserve">
<style type="text/css">
	.st0{fill:#FEFEFC;}
</style>
<path id="Fill-43" class="st0" d="M4.2,6.3L4.6,6L4.2,5.7V3.8H3.6L3,4.2v0.5h0.6v1L3.2,6l0.4,0.3v1.3H3v0.6h1.8V7.6H4.2V6.3z
	 M6.8,3.8L5.9,4.5v0.7h0.6V4.8L7,4.4h0.9l0.4,0.4v0.5L7.9,5.6H7v0.6h0.9l0.4,0.3v0.6L7.9,7.6H7L6.6,7.2V6.7H5.9v0.7l0.8,0.7h1.4
	L9,7.5V6.3L8.5,5.9l0,0L9,5.6V4.5L8.2,3.8H6.8z"/>
</svg>
