<?xml version="1.0" encoding="utf-8"?>
<!-- Generator: Adobe Illustrator 22.1.0, SVG Export Plug-In . SVG Version: 6.00 Build 0)  -->
<svg version="1.1" id="Layer_1" xmlns="http://www.w3.org/2000/svg" xmlns:xlink="http://www.w3.org/1999/xlink" x="0px" y="0px"
	 viewBox="0 0 40 39" style="enable-background:new 0 0 40 39;" xml:space="preserve">
<style type="text/css">
	.st0{opacity:0.4;fill:none;stroke:#BFBB50;enable-background:new    ;}
	.st1{fill:#BFBB50;}
</style>
<path id="Path-9-Copy" class="st0" d="M39,19.5H9"/>
<path id="Oval-Copy-4" class="st1" d="M9.5,18C8.7,18,8,18.7,8,19.5S8.7,21,9.5,21s1.5-0.7,1.5-1.5S10.3,18,9.5,18z"/>
<path id="Oval-Copy-5" class="st1" d="M38.5,18c-0.8,0-1.5,0.7-1.5,1.5s0.7,1.5,1.5,1.5s1.5-0.7,1.5-1.5S39.3,18,38.5,18z"/>
<path id="Rectangle-6-Copy-8" class="st1" d="M5,24c-0.8-1.5-2.5-3-5-4.5c2.5-1.5,4.2-3,5-4.5v3l-1.2,1.5L5,21V24z"/>
</svg>
