<?xml version="1.0" encoding="utf-8"?>
<!-- Generator: Adobe Illustrator 22.1.0, SVG Export Plug-In . SVG Version: 6.00 Build 0)  -->
<svg version="1.1" id="Layer_1" xmlns="http://www.w3.org/2000/svg" xmlns:xlink="http://www.w3.org/1999/xlink" x="0px" y="0px"
	 viewBox="0 0 49 50" style="enable-background:new 0 0 49 50;" xml:space="preserve">
<style type="text/css">
	.st0{opacity:0.4;fill:none;stroke:#BFBB50;enable-background:new    ;}
	.st1{fill:#BFBB50;}
</style>
<g id="arrow-copy-2" transform="translate(0.000000, 10.000000)">
	<path id="Path-9-Copy_2_" class="st0" d="M4.5-4v20"/>
	<path id="Oval-Copy-4_2_" class="st1" d="M4.5,17C5.3,17,6,16.3,6,15.5S5.3,14,4.5,14S3,14.7,3,15.5C3,16.3,3.7,17,4.5,17z"/>
	<path id="Oval-Copy-5_2_" class="st1" d="M4.5-2C5.3-2,6-2.7,6-3.5S5.3-5,4.5-5S3-4.3,3-3.5S3.7-2,4.5-2z"/>
	<path id="Rectangle-6-Copy-8_2_" class="st1" d="M8.5,20c-1.3,0.8-2.7,2.5-4,5c-1.3-2.5-2.7-4.2-4-5h2.7l1.3,1.2L5.8,20H8.5z"/>
</g>
</svg>
