<?xml version="1.0" encoding="UTF-8"?>
<svg width="780px" height="390px" viewBox="0 0 780 390" version="1.1" xmlns="http://www.w3.org/2000/svg" xmlns:xlink="http://www.w3.org/1999/xlink">
    <!-- Generator: Sketch 52 (66869) - http://www.bohemiancoding.com/sketch -->
    <title>Fill 47</title>
    <desc>Created with Sketch.</desc>
    <g id="balls-page" stroke="none" stroke-width="1" fill="none" fill-rule="evenodd">
        <g id="balls-main-1600" transform="translate(-410.000000, -2089.000000)" fill="#1A1718">
            <g id="block-barbers" transform="translate(0.000000, 1888.000000)">
                <path d="M851.551236,390.192057 L836.082539,423.873134 L787.453119,423.678349 L787.450336,212.740308 L747.085357,212.740308 L759.618369,221.55293 L759.618369,356.917245 L749.403296,356.917245 L759.618369,367.132317 L759.618369,435.563005 L751.326101,441.804467 L863.029627,441.804467 L851.665324,432.97515 L851.551236,390.192057 Z M977.231963,395.77125 L961.971964,425.868287 L913.398197,423.828612 L916.055618,214.223455 L875.551507,212.740308 L887.967648,219.204381 L885.301879,356.931158 L875.086807,356.931158 L885.301879,367.146231 L885.185008,437.293808 L876.851,442.444475 L988.710354,446.902264 L977.348834,438.554344 L977.231963,395.77125 Z M1188.67366,492.092341 C1178.23876,423.917656 1117.48538,375.686153 1101.94711,365.251253 C1095.11573,360.662679 1089.38628,356.906115 1083.3396,353.948168 C1060.41899,342.722998 1042.77427,341.966119 1034.69905,341.598811 L1034.69905,239.567742 L1071.56903,229.132842 L1071.91686,263.395491 C1071.91686,263.395491 1079.56912,265.916563 1084.35248,268.265111 C1088.31218,270.207394 1096.35123,275.221711 1096.35123,275.221711 L1096.35123,222.003717 C1096.35123,222.003717 1138.12144,206.87172 1158.06462,210.580979 C1158.06462,210.580979 1111.22444,198.9885 1092.67257,201.30644 C1074.12071,203.624379 1043.97637,216.14626 1031.45449,216.610961 C1018.93261,217.075662 1003.16339,216.610961 1003.16339,216.610961 L1010.58469,225.654541 L1009.19893,351.407618 C1009.19893,351.407618 1028.3268,348.814197 1034.69905,348.961677 C1039.03162,349.061852 1042.83549,349.226028 1051.91803,350.873351 C1058.82732,352.125539 1066.31541,354.643828 1071.27407,357.496034 L1071.2212,474.70084 L1034.69905,443.223614 L1034.69905,423.656088 L1042.10644,419.476562 L1010.05042,399.063114 L1009.88903,443.627097 L1002.69869,450.817439 L1012.43793,453.135378 L1121.4256,545.427206 L1096.61558,511.398299 L1096.79367,411.918912 L1107.9771,406.295196 L1097.13871,400.265214 L1097.13871,373.134472 C1097.13871,373.134472 1139.4098,399.917384 1160.78604,462.716009 C1162.4111,467.488237 1164.34226,478.654972 1164.61774,489.309701 C1164.84035,498.041626 1163.69668,506.581549 1163.11511,509.472712 C1156.6733,541.525944 1137.58995,554.904879 1111.22444,555.920542 C1075.06403,557.311862 1027.22209,527.05065 1009.65529,489.309701 C1009.65529,489.309701 1016.10545,506.30885 1030.70039,523.57235 C1040.24207,534.853173 1054.73406,545.755558 1068.09073,553.794605 C1108.6171,578.181664 1141.83348,573.949268 1151.57272,572.093247 C1151.57272,572.093247 1152.29064,576.403557 1152.96404,577.889487 C1155.16511,582.759107 1160.1516,587.628727 1160.1516,587.628727 C1160.1516,587.628727 1157.59992,581.601529 1159.6869,570.354097 C1160.633,565.2563 1197.35272,548.794201 1188.67366,492.092341 Z M528.776102,361.252599 C533.734767,358.394827 541.169982,354.908179 548.079277,353.655991 C557.161815,352.008668 565.298255,351.744317 565.298255,351.744317 L565.298255,382.612145 L557.893649,386.08488 L565.298255,390.264405 L565.298255,446.006254 L528.776102,477.48348 L528.776102,361.252599 Z M587.559377,455.918019 L597.298617,453.600079 L590.111058,446.409737 L589.877316,357.598992 L573.181475,347.859751 L590.342017,334.408469 L589.415398,228.437182 L596.833916,219.393601 C596.833916,219.393601 581.067477,219.858302 568.545596,219.393601 C556.023715,218.9289 525.876591,206.407019 507.327512,204.08908 C488.775649,201.77114 441.935467,213.36362 441.935467,213.36362 C461.875866,209.65436 503.648861,224.786358 503.648861,224.786358 L503.648861,358.700918 C503.648861,358.700918 511.687909,353.6866 515.644823,351.744317 C520.428182,349.395769 528.080442,346.874697 528.080442,346.874697 L528.428272,231.915482 L565.298255,242.350383 L565.298255,344.381451 C557.225816,344.74876 539.583877,345.505638 516.657704,356.730808 C510.61381,359.688755 504.881571,363.445319 498.050189,368.033893 C482.514709,378.468794 421.761325,426.700296 411.326424,494.874981 C402.64737,551.576841 439.364307,568.03894 440.310405,573.136737 C442.397385,584.384169 439.848487,590.411368 439.848487,590.411368 C439.848487,590.411368 444.832195,585.541747 447.036046,580.672127 C447.706662,579.186197 448.427366,574.875887 448.427366,574.875887 C458.166607,576.731908 491.382983,580.964304 531.906572,556.577245 C545.268811,548.538198 559.758018,537.635813 569.296909,526.35499 C583.894639,509.09149 590.342017,492.092341 590.342017,492.092341 C572.775209,529.83329 524.933276,560.094503 488.775649,558.703182 C462.407351,557.687519 443.326787,544.308585 436.882192,512.255352 C436.30062,509.364189 435.159738,500.824266 435.382349,492.092341 C435.655048,481.437612 437.5862,470.270877 439.211262,465.498649 C460.590287,402.700025 502.861374,375.917113 502.861374,375.917113 L502.861374,403.047855 L492.02299,409.077836 L503.203639,414.701552 L503.38451,514.180939 L478.571708,548.209846 L587.559377,455.918019 Z M720.469403,222.479549 L729.512984,212.740308 L623.076996,216.914268 L634.207557,224.566529 L636.063578,365.320819 L625.394936,367.8725 L636.294537,375.293801 L638.094905,441.150547 L627.849224,448.249062 L664.310159,446.743654 L662.960578,341.437418 L679.194501,340.279839 C679.194501,340.279839 682.208101,329.149279 692.412042,319.640997 L662.264918,321.032317 L660.642639,235.69709 L693.394314,234.597947 L694.960941,360.451198 L685.213352,362.079043 L694.960941,371.584542 L697.409664,445.374595 L732.991284,443.771794 L724.295534,436.280927 L720.469403,222.479549 Z" id="Fill-47"></path>
            </g>
        </g>
    </g>
</svg>