<?xml version="1.0" encoding="utf-8"?>
<!-- Generator: Adobe Illustrator 22.1.0, SVG Export Plug-In . SVG Version: 6.00 Build 0)  -->
<svg version="1.1" id="Layer_1" xmlns="http://www.w3.org/2000/svg" xmlns:xlink="http://www.w3.org/1999/xlink" x="0px" y="0px"
	 viewBox="0 0 150 150" style="enable-background:new 0 0 150 150;" xml:space="preserve">
<style type="text/css">
	.st0{fill:#231F20;}
</style>
<path class="st0" d="M46.2,101.3c0.2,0.2,0.5,0.5,0.7,0.7l1.4-1.4c-0.2-0.2-0.4-0.5-0.7-0.7L46.2,101.3z M48.9,46
	c-0.3,0.2-0.5,0.5-0.8,0.7l1.4,1.5c0.2-0.2,0.5-0.4,0.7-0.7L48.9,46z M49.9,104.8c0.3,0.2,0.5,0.4,0.8,0.6l1.2-1.6
	c-0.3-0.2-0.5-0.4-0.8-0.6L49.9,104.8z M43,97.3c0.2,0.3,0.4,0.6,0.6,0.8l1.6-1.2c-0.2-0.3-0.4-0.5-0.6-0.8L43,97.3z M40.3,92.9
	c0.2,0.3,0.3,0.6,0.5,0.9l1.8-1c-0.2-0.3-0.3-0.6-0.5-0.9L40.3,92.9z M58.5,110.4c0.3,0.1,0.6,0.3,0.9,0.4l0.8-1.8
	c-0.3-0.1-0.6-0.3-0.9-0.4L58.5,110.4z M52.9,42.8c-0.3,0.2-0.6,0.4-0.8,0.6l1.2,1.6c0.3-0.2,0.5-0.4,0.8-0.6L52.9,42.8z M40.2,87.5
	l-1.9,0.7c0.1,0.3,0.2,0.6,0.4,1l1.9-0.7C40.4,88.1,40.3,87.8,40.2,87.5z M61.1,38.5l0.7,1.9c0.3-0.1,0.6-0.2,0.9-0.3l-0.7-1.9
	C61.7,38.3,61.4,38.4,61.1,38.5z M54,107.9c0.3,0.2,0.6,0.4,0.9,0.5l1-1.7c-0.3-0.2-0.6-0.3-0.8-0.5L54,107.9z M63.3,112.2
	c0.3,0.1,0.7,0.2,1,0.3l0.5-1.9c-0.3-0.1-0.6-0.2-0.9-0.3L63.3,112.2z M56.4,40.7l1,1.8c0.3-0.2,0.6-0.3,0.9-0.5l-0.9-1.8
	C57,40.4,56.7,40.5,56.4,40.7z M109.4,56.6c-0.2-0.3-0.3-0.6-0.5-0.9l-1.7,1c0.2,0.3,0.3,0.6,0.5,0.9L109.4,56.6z M38.8,82.9l-2,0.4
	c0.1,0.3,0.1,0.7,0.2,1l1.9-0.5C39,83.5,38.9,83.2,38.8,82.9z M46.9,51l-1.5-1.3c-0.2,0.3-0.4,0.5-0.7,0.8l1.6,1.3
	C46.4,51.5,46.7,51.2,46.9,51z M109.6,61.9l1.9-0.7c-0.1-0.3-0.2-0.6-0.4-1l-1.9,0.8C109.4,61.3,109.5,61.6,109.6,61.9z M111.8,71.4
	l2-0.2c0-0.3-0.1-0.7-0.1-1l-2,0.2C111.8,70.7,111.8,71.1,111.8,71.4z M111,66.6l1.9-0.5c-0.1-0.3-0.2-0.7-0.2-1l-1.9,0.5
	C110.9,66,111,66.3,111,66.6z M106.7,52.2c-0.2-0.3-0.4-0.6-0.6-0.8l-1.6,1.2c0.2,0.3,0.4,0.5,0.6,0.8L106.7,52.2z M38.6,68.4
	l-2-0.4c-0.1,0.3-0.1,0.7-0.2,1l2,0.3C38.5,69,38.5,68.7,38.6,68.4z M38.1,78l-2,0.2c0,0.3,0.1,0.7,0.1,1l2-0.2
	C38.2,78.7,38.2,78.4,38.1,78z M44,54.9l-1.7-1.1c-0.2,0.3-0.4,0.6-0.5,0.9l1.7,1C43.6,55.4,43.8,55.1,44,54.9z M41.6,59.1l-1.8-0.9
	c-0.1,0.3-0.3,0.6-0.4,0.9l1.8,0.8C41.3,59.7,41.4,59.4,41.6,59.1z M39.8,63.6L37.9,63c-0.1,0.3-0.2,0.7-0.3,1l1.9,0.6
	C39.6,64.3,39.7,63.9,39.8,63.6z M96.4,105.2l1.2,1.6c0.3-0.2,0.6-0.4,0.8-0.6l-1.2-1.6C96.9,104.8,96.6,105,96.4,105.2z
	 M101.3,48.9c0.2,0.2,0.5,0.5,0.7,0.7l1.5-1.4c-0.2-0.2-0.5-0.5-0.7-0.7L101.3,48.9z M100.2,102.1l1.4,1.5c0.2-0.2,0.5-0.5,0.7-0.7
	l-1.4-1.4C100.6,101.7,100.4,101.9,100.2,102.1z M93.6,43c0.3,0.2,0.6,0.3,0.8,0.5l1.1-1.7c-0.3-0.2-0.6-0.4-0.9-0.5L93.6,43z
	 M103.5,98.6l1.5,1.3c0.2-0.3,0.4-0.5,0.6-0.8l-1.6-1.2C103.9,98.1,103.7,98.3,103.5,98.6z M97.6,45.7c0.3,0.2,0.5,0.4,0.8,0.6
	l1.3-1.5c-0.3-0.2-0.5-0.4-0.8-0.6L97.6,45.7z M106.4,94.7l1.7,1.1c0.2-0.3,0.4-0.6,0.5-0.9l-1.7-1
	C106.7,94.1,106.5,94.4,106.4,94.7z M111.5,81.1l2,0.3c0.1-0.3,0.1-0.7,0.2-1l-2-0.3C111.6,80.5,111.6,80.8,111.5,81.1z M110.4,85.8
	l1.9,0.6c0.1-0.3,0.2-0.7,0.3-1l-1.9-0.5C110.6,85.2,110.5,85.5,110.4,85.8z M108.7,90.4l1.8,0.8c0.1-0.3,0.3-0.6,0.4-0.9l-1.8-0.8
	C108.9,89.8,108.8,90.1,108.7,90.4z M92.2,107.7l0.9,1.8c0.3-0.2,0.6-0.3,0.9-0.5l-1-1.7C92.8,107.4,92.5,107.6,92.2,107.7z
	 M84.6,39.3c0.3,0.1,0.6,0.2,0.9,0.3l0.6-1.9c-0.3-0.1-0.7-0.2-1-0.3L84.6,39.3z M79.9,38.3c0.3,0,0.6,0.1,1,0.1l0.3-2
	c-0.3-0.1-0.7-0.1-1-0.1L79.9,38.3z M83.1,111.1l0.4,2c0.3-0.1,0.7-0.2,1-0.2l-0.5-1.9C83.8,111,83.5,111,83.1,111.1z M78.3,111.9
	l0.2,2c0.3,0,0.7-0.1,1-0.1l-0.2-2C79,111.8,78.7,111.8,78.3,111.9z M71.1,36.2l0.2,2c0.3,0,0.6-0.1,1-0.1l-0.1-2
	C71.7,36.1,71.4,36.2,71.1,36.2z M89.2,40.8c0.3,0.1,0.6,0.3,0.9,0.4l0.8-1.8c-0.3-0.1-0.6-0.3-0.9-0.4L89.2,40.8z M68.3,113.4
	c0.3,0.1,0.7,0.1,1,0.2l0.3-2c-0.3,0-0.6-0.1-1-0.2L68.3,113.4z M87.8,109.7l0.7,1.9c0.3-0.1,0.6-0.2,1-0.4l-0.7-1.9
	C88.4,109.5,88.1,109.6,87.8,109.7z M66,37l0.5,1.9c0.3-0.1,0.6-0.1,1-0.2l-0.4-2C66.7,36.9,66.3,37,66,37z M74.3,35.7L74.3,35.7
	l0.7,1.1V38c0.2,0,0.5,0,0.7,0l1.2,2h1.4v-6.4h-1.3v4.3h0l-1-1.6l0-0.2c0,0-0.1,0-0.1,0l-1.5-2.4H73V40h1.3V35.7z M112.8,76.3l1.2,0
	c0-0.3,0-0.7,0-1l-1.2,0v0h3.1v-1.1h-3.1v-1.4h3.4v-1.2h-4.8V78h4.9v-1.2h-3.5V76.3z M77.4,112.7c-0.2-0.1-0.4-0.2-0.6-0.3
	c-0.2-0.1-0.4-0.1-0.5-0.1c-0.4-0.1-0.7-0.2-1-0.3c-0.2-0.1-0.4-0.1-0.6-0.2c-0.1-0.1-0.2-0.1-0.3-0.2c0-0.1-0.1-0.2-0.1-0.3
	c0-0.1,0-0.3,0.1-0.3c0.1-0.1,0.1-0.2,0.2-0.2c0.1-0.1,0.2-0.1,0.3-0.1c0.1,0,0.2,0,0.3,0c0.2,0,0.3,0,0.5,0c0.1,0,0.3,0.1,0.4,0.2
	s0.2,0.2,0.3,0.3c0.1,0.1,0.1,0.3,0.1,0.5H78c0-0.4-0.1-0.7-0.2-1c-0.1-0.3-0.3-0.5-0.6-0.6c-0.2-0.2-0.5-0.3-0.8-0.4
	c-0.3-0.1-0.6-0.1-1-0.1c-0.3,0-0.6,0-0.9,0.1c-0.3,0.1-0.5,0.2-0.8,0.4c-0.2,0.2-0.4,0.4-0.6,0.6c-0.1,0.2-0.2,0.5-0.2,0.9
	c0,0.3,0.1,0.5,0.2,0.8c0.1,0.1,0.2,0.2,0.3,0.3l-0.1,1.4h-0.6c0,0.4,0.1,0.7,0.2,1c0.1,0.3,0.4,0.5,0.6,0.7
	c0.3,0.2,0.5,0.3,0.9,0.4s0.7,0.1,1,0.1c0.4,0,0.8-0.1,1.2-0.2c0.3-0.1,0.6-0.2,0.8-0.4c0.2-0.2,0.4-0.4,0.5-0.7
	c0.1-0.3,0.2-0.5,0.2-0.8c0-0.4-0.1-0.7-0.2-0.9C77.8,113,77.6,112.8,77.4,112.7z M76.7,114.7c-0.1,0.1-0.2,0.2-0.3,0.2
	c-0.1,0.1-0.3,0.1-0.4,0.1c-0.1,0-0.3,0-0.4,0c-0.2,0-0.4,0-0.5-0.1c-0.2,0-0.3-0.1-0.5-0.2c-0.1-0.1-0.2-0.2-0.3-0.4
	c-0.1-0.1-0.1-0.3-0.1-0.4c0.1,0,0.2,0,0.2,0l0-1c0.2,0.1,0.3,0.1,0.5,0.2c0.2,0.1,0.5,0.1,0.7,0.2s0.4,0.1,0.6,0.2
	c0.2,0.1,0.3,0.2,0.4,0.3c0.1,0.1,0.2,0.2,0.2,0.4C76.8,114.4,76.8,114.5,76.7,114.7z M37.6,74.1l0.3,0l1,3.8h1.4l1.7-6.4h-1.4
	L39.5,76h0l-1.1-4.4h-1.3l-0.4,1.5l-0.6,0c0,0.3,0,0.7,0,1l0.4,0L36,75.9h0l-1-4.4h-1.4l1.7,6.4h1.4L37.6,74.1z M75,150l1-30h-1V150
	z M120,74v1h30L120,74z M75,0l-1,30h1V0z M30,76v-1H0L30,76z"/>
</svg>
