<?xml version="1.0" encoding="utf-8"?>
<!-- Generator: Adobe Illustrator 22.1.0, SVG Export Plug-In . SVG Version: 6.00 Build 0)  -->
<svg version="1.1" id="Layer_1" xmlns="http://www.w3.org/2000/svg" xmlns:xlink="http://www.w3.org/1999/xlink" x="0px" y="0px"
	 viewBox="0 0 150 150" style="enable-background:new 0 0 150 150;" xml:space="preserve">
<style type="text/css">
	.st0{fill:#231F20;}
</style>
<path class="st0" d="M92.4,91.6c3.7-3.9,6.1-9,6.6-14.7L107,75H75l6,6l16.9-3.9c-0.5,5.2-2.6,9.9-6,13.5L92.4,91.6z M77.1,52.1
	c5.2,0.5,9.9,2.6,13.5,6l1-0.4c-3.9-3.7-9-6.1-14.7-6.6L75,43v32l6-6L77.1,52.1z M72.9,97.9c-5.2-0.5-9.9-2.6-13.5-6l-1,0.4
	c3.9,3.7,9,6.1,14.7,6.6L75,107V75l-6,6L72.9,97.9z M52.1,72.9c0.5-5.2,2.6-9.9,6-13.5l-0.4-1c-3.7,3.9-6.1,9-6.6,14.7L43,75h32
	l-6-6L52.1,72.9z M91.9,59.4c3.3,3.6,5.5,8.3,6,13.5l1,0.2c-0.4-5.7-2.9-10.8-6.6-14.7L93,57L81,69l6,1.4L91.9,59.4z M59.4,58.1
	c3.6-3.3,8.3-5.5,13.5-6l0.2-1c-5.7,0.4-10.8,2.9-14.7,6.6L57,57l12,12l1.4-6L59.4,58.1z M90.6,91.9c-3.6,3.3-8.3,5.5-13.5,6l-0.2,1
	c5.7-0.4,10.8-2.9,14.7-6.6L93,93l-1-1l-0.7-0.7h0L81,81l-1.4,6L90.6,91.9z M58.1,90.6c-3.3-3.6-5.5-8.3-6-13.5l-1-0.2
	c0.4,5.7,2.9,10.8,6.6,14.7L57,93l12-12l-6-1.4L58.1,90.6z"/>
</svg>
