<?xml version="1.0" encoding="UTF-8"?>
<svg width="109px" height="20px" viewBox="0 0 109 20" version="1.1" xmlns="http://www.w3.org/2000/svg" xmlns:xlink="http://www.w3.org/1999/xlink">
    <!-- Generator: Sketch 61.2 (89653) - https://sketch.com -->
    <title>Fill 1</title>
    <desc>Created with Sketch.</desc>
    <g id="facebook" stroke="none" stroke-width="1" fill="none" fill-rule="evenodd">
        <path d="M73.901,14.558 L72.002,14.558 C72.002,17.131 74.087,19.216 76.66,19.216 C79.233,19.216 81.318,17.131 81.318,14.558 L79.409,14.558 C79.409,16.079 78.176,17.312 76.655,17.312 C75.134,17.312 73.901,16.079 73.901,14.558 Z M101.474,12.339 C101.266,12.723 100.955,13.03 100.542,13.257 C100.128,13.485 99.687,13.599 99.218,13.599 C98.711,13.599 98.305,13.464 98.003,13.194 C97.7,12.923 97.549,12.561 97.549,12.105 C97.549,11.545 97.77,11.112 98.213,10.806 C98.655,10.5 99.316,10.347 100.195,10.347 L101.474,10.347 L101.474,12.339 Z M97.544,4.976 C96.883,5.262 96.361,5.658 95.976,6.163 C95.592,6.667 95.4,7.209 95.4,7.789 L97.773,7.789 C97.773,7.372 97.946,7.029 98.291,6.758 C98.636,6.488 99.078,6.353 99.619,6.353 C100.244,6.353 100.709,6.517 101.015,6.846 C101.322,7.175 101.474,7.613 101.474,8.16 L101.474,8.853 L100.019,8.853 C98.463,8.853 97.267,9.154 96.43,9.756 C95.594,10.359 95.176,11.223 95.176,12.349 C95.176,13.241 95.511,13.99 96.181,14.595 C96.852,15.201 97.718,15.503 98.779,15.503 C99.837,15.503 100.733,15.126 101.474,14.389 L101.474,15.308 L103.847,15.308 L103.847,8.101 C103.828,6.975 103.45,6.101 102.715,5.479 C101.979,4.857 100.992,4.546 99.756,4.546 C98.942,4.546 98.204,4.69 97.544,4.976 Z M78.979,2.349 C78.748,2.59 78.633,2.893 78.633,3.257 C78.633,3.616 78.748,3.914 78.979,4.151 C79.21,4.388 79.541,4.507 79.97,4.507 C80.4,4.507 80.732,4.388 80.967,4.151 C81.201,3.914 81.318,3.616 81.318,3.257 C81.318,2.893 81.201,2.59 80.967,2.349 C80.732,2.108 80.4,1.988 79.97,1.988 C79.541,1.988 79.21,2.108 78.979,2.349 Z M74.124,9.205 C74.124,7.684 75.258,6.451 76.655,6.451 C78.052,6.451 79.186,7.684 79.186,9.205 C79.186,10.726 78.052,11.958 76.655,11.958 C75.258,11.958 74.124,10.726 74.124,9.205 Z M72.002,9.205 C72.002,11.777 74.087,13.863 76.66,13.863 C79.233,13.863 81.318,11.777 81.318,9.205 C81.318,6.632 79.233,4.546 76.66,4.546 C74.087,4.546 72.002,6.632 72.002,9.205 Z M106.484,15.308 L108.857,15.308 L108.857,0.308 L106.484,0.308 L106.484,15.308 Z M91.836,12.398 L91.836,6.499 L93.701,6.499 L93.701,4.742 L91.836,4.742 L91.836,2.173 L89.463,2.173 L89.463,4.742 L87.724,4.742 L87.724,6.499 L89.463,6.499 L89.463,12.486 C89.463,14.498 90.374,15.503 92.197,15.503 C92.698,15.503 93.219,15.428 93.759,15.279 L93.759,13.443 C93.48,13.508 93.203,13.541 92.929,13.541 C92.519,13.541 92.235,13.451 92.075,13.272 C91.915,13.093 91.836,12.801 91.836,12.398 Z M83.906,15.308 L86.279,15.308 L86.279,4.742 L83.906,4.742 L83.906,15.308 Z M84.106,1.089 C83.875,1.331 83.759,1.633 83.759,1.998 C83.759,2.356 83.875,2.654 84.106,2.891 C84.337,3.128 84.668,3.248 85.097,3.248 C85.527,3.248 85.859,3.128 86.093,2.891 C86.328,2.654 86.445,2.356 86.445,1.998 C86.445,1.633 86.328,1.331 86.093,1.089 C85.859,0.848 85.527,0.728 85.097,0.728 C84.668,0.728 84.337,0.848 84.106,1.089 Z M67.661,1.089 C67.43,1.331 67.314,1.633 67.314,1.998 C67.314,2.356 67.43,2.654 67.661,2.891 C67.892,3.128 68.222,3.248 68.652,3.248 C69.082,3.248 69.414,3.128 69.648,2.891 C69.883,2.654 70,2.356 70,1.998 C70,1.633 69.883,1.331 69.648,1.089 C69.414,0.848 69.082,0.728 68.652,0.728 C68.222,0.728 67.892,0.848 67.661,1.089 Z M67.461,15.308 L69.834,15.308 L69.834,4.742 L67.461,4.742 L67.461,15.308 Z M62.461,12.271 C62.011,13.137 61.302,13.57 60.332,13.57 C59.57,13.57 58.983,13.269 58.569,12.666 C58.155,12.064 57.949,11.226 57.949,10.152 C57.949,8.928 58.157,8.011 58.574,7.403 C58.99,6.794 59.583,6.49 60.351,6.49 C61.322,6.49 62.025,6.913 62.461,7.759 L62.461,12.271 Z M62.461,5.718 C61.771,4.937 60.865,4.546 59.746,4.546 C58.476,4.546 57.464,5.04 56.709,6.026 C55.953,7.012 55.576,8.319 55.576,9.947 C55.576,11.659 55.958,13.013 56.723,14.009 C57.488,15.005 58.489,15.503 59.726,15.503 C60.911,15.503 61.859,15.074 62.568,14.214 L62.685,15.308 L64.834,15.308 L64.834,0.308 L62.461,0.308 L62.461,5.718 Z M19.062,12.168 C18.613,13.034 17.904,13.467 16.933,13.467 C16.172,13.467 15.584,13.166 15.171,12.564 C14.757,11.962 14.551,11.124 14.551,10.049 C14.551,8.825 14.759,7.909 15.176,7.3 C15.592,6.691 16.185,6.387 16.953,6.387 C17.923,6.387 18.626,6.811 19.062,7.657 L19.062,12.168 Z M19.062,5.616 C18.372,4.834 17.467,4.444 16.347,4.444 C15.078,4.444 14.066,4.937 13.31,5.923 C12.555,6.91 12.177,8.217 12.177,9.844 C12.177,11.557 12.56,12.911 13.325,13.907 C14.09,14.903 15.091,15.401 16.328,15.401 C17.513,15.401 18.46,14.971 19.17,14.112 L19.287,15.206 L21.435,15.206 L21.435,0.206 L19.062,0.206 L19.062,5.616 Z M3.984,3.975 C3.984,3.344 4.147,2.87 4.472,2.554 C4.798,2.238 5.322,2.081 6.045,2.081 C6.787,2.081 7.607,2.237 8.506,2.549 L8.867,0.586 C8.353,0.417 7.856,0.277 7.378,0.166 C6.899,0.056 6.4,2.84217094e-14 5.879,2.84217094e-14 C4.993,2.84217094e-14 4.235,0.15 3.603,0.45 C2.972,0.749 2.484,1.195 2.138,1.788 C1.793,2.38 1.617,3.09 1.611,3.916 L1.611,4.639 L-1.37667655e-13,4.639 L-1.37667655e-13,6.397 L1.611,6.397 L1.611,15.206 L3.984,15.206 L3.984,6.397 L6.064,6.397 L6.064,4.639 L3.984,4.639 L3.984,3.975 Z M7.617,15.206 L9.99,15.206 L9.99,4.64 L7.617,4.64 L7.617,15.206 Z M30.351,12.168 C29.902,13.034 29.193,13.467 28.222,13.467 C27.461,13.467 26.873,13.166 26.46,12.564 C26.046,11.962 25.84,11.124 25.84,10.049 C25.84,8.825 26.048,7.909 26.465,7.3 C26.881,6.691 27.474,6.387 28.242,6.387 C29.212,6.387 29.915,6.811 30.351,7.657 L30.351,12.168 Z M30.351,5.616 C29.661,4.834 28.756,4.444 27.636,4.444 C26.367,4.444 25.355,4.937 24.599,5.923 C23.844,6.91 23.467,8.217 23.467,9.844 C23.467,11.557 23.849,12.911 24.614,13.907 C25.379,14.903 26.38,15.401 27.617,15.401 C28.802,15.401 29.749,14.971 30.459,14.112 L30.576,15.206 L32.724,15.206 L32.724,0.206 L30.351,0.206 L30.351,5.616 Z M46.855,8.936 L42.334,8.936 C42.445,8.122 42.7,7.487 43.1,7.032 C43.501,6.576 44.027,6.348 44.677,6.348 C45.335,6.348 45.849,6.552 46.22,6.958 C46.592,7.365 46.803,7.966 46.855,8.76 L46.855,8.936 Z M42.226,5.137 C41.49,5.6 40.919,6.246 40.512,7.076 C40.106,7.906 39.902,8.848 39.902,9.903 L39.902,10.196 C39.902,11.771 40.369,13.033 41.303,13.98 C42.238,14.927 43.457,15.401 44.961,15.401 C45.84,15.401 46.632,15.227 47.339,14.878 C48.045,14.53 48.61,14.04 49.033,13.409 L47.754,12.188 C47.07,13.067 46.185,13.506 45.097,13.506 C44.322,13.506 43.68,13.252 43.169,12.745 C42.657,12.237 42.366,11.547 42.295,10.674 L49.199,10.674 L49.199,9.717 C49.199,8.038 48.807,6.739 48.022,5.821 C47.238,4.903 46.126,4.444 44.687,4.444 C43.782,4.444 42.962,4.675 42.226,5.137 Z M52.514328,12.6981431 C52.9570363,12.6981431 53.2988332,12.8234686 53.5397186,13.0741196 C53.780604,13.3247707 53.9010468,13.6388983 53.9010468,14.0165024 C53.9010468,14.3875962 53.780604,14.6952134 53.5397186,14.939354 C53.2988332,15.1834946 52.9570363,15.3055649 52.514328,15.3055649 C52.0911509,15.3055649 51.7558645,15.1851222 51.5084686,14.9442368 C51.2610728,14.7033514 51.1373749,14.3941066 51.1373749,14.0165024 C51.1373749,13.6388983 51.2578176,13.3247707 51.498703,13.0741196 C51.7395884,12.8234686 52.0781301,12.6981431 52.514328,12.6981431 Z M37.724,0.206 L37.724,15.206 L35.351,15.206 L35.351,0.206 L37.724,0.206 Z" id="Fill-1" fill="#101216"></path>
    </g>
</svg>