<?xml version="1.0" encoding="utf-8"?>
<!-- Generator: Adobe Illustrator 22.1.0, SVG Export Plug-In . SVG Version: 6.00 Build 0)  -->
<svg version="1.1" id="Layer_1" xmlns="http://www.w3.org/2000/svg" xmlns:xlink="http://www.w3.org/1999/xlink" x="0px" y="0px"
	 viewBox="0 0 194 141" style="enable-background:new 0 0 194 141;" xml:space="preserve">
<style type="text/css">
	.st0{fill:#BFBB50;}
	.st1{fill:#FFFFFF;}
</style>
<g id="Logo" transform="translate(505.000000, 0.000000)">
	<path class="st0" d="M-407.9,2.9c-2.5,0.1-2.7,2-2.7,2h5.3C-405.3,4.9-405.3,2.9-407.9,2.9z M-392.5,24.4
		c-1.9-1.4-8.2-3.2-15.3-3.3c-7.2,0.1-13.5,1.9-15.3,3.3c-2.4,1.8,0,5.2,0,5.2s0,0,0.1,0v6.9l15.4-10.4c1.1,0,10.1,0,15.2,3.6
		C-392.5,29.6-390.1,26.2-392.5,24.4z M-408.1,26c-0.1,0-0.3,0-0.4,0C-408.3,26-408.2,26-408.1,26z M-421.6,28.7
		c-0.5,0.3-1,0.5-1.4,0.8C-422.6,29.2-422.1,29-421.6,28.7z M-389.4,95.8V27.3c0.5-0.5,1.2-1.7,1.2-4.7c0-3.6-1.9-5.4-2.6-5.9
		c-1.5-6.9-5.1-10.4-7.8-12.2c-2.4-1.6-4.5-2.1-5.4-2.2c-1.1-1.7-2.8-1.6-3.7-1.6h-0.5c-0.9,0-2.7,0-3.7,1.6c-0.8,0.1-3,0.6-5.4,2.2
		c-2.7,1.8-6.2,5.3-7.8,12.2c-0.7,0.5-2.6,2.4-2.6,5.9c0,3,0.6,4.2,1.2,4.7v68.5c-0.6,0.5-1.4,1.8-1.2,5.3c0.3,3.7,1.6,5,2.4,5.4
		c0.1,0.7,0.4,2.1,0.9,3.9l16.5,0.5l16.4-0.5c0.6-1.8,0.8-3.2,0.9-3.9c0.7-0.4,2.1-1.7,2.4-5.4C-388,97.6-388.8,96.3-389.4,95.8z
		 M-409.6,103.3c-2.5,0.1-8.3-0.4-13.6-1.2c-0.8-1.4,0.3-2.1,0.3-2.1C-417,103.5-407.1,103.1-409.6,103.3z M-396.5,109.7h-0.9
		c0.5-0.8,0.9-1.8,1.2-2.7C-396,107.7-396.2,108.7-396.5,109.7z M-390.1,96.9c0.1,0.1,0.7,1.1,0.5,4.1c-0.3,3.8-1.8,4.4-1.8,4.4
		l-0.5,0.1l-0.1,0.5c0,0-0.2,1.6-0.8,3.7h-1.5c0.6-2.3,0.8-4.3,1-5.1c3.9-2.5,1-5.9,1-5.9s-5,3.4-15.6,3.4
		c-10.6,0-15.5-3.4-15.5-3.4c-3,4.3,1.2,6,1.2,6s0.1,2.2,1,5h-2c-0.6-2.1-0.8-3.6-0.8-3.7v-0.5l-0.5-0.1c0,0-1.5-0.5-1.8-4.4
		c-0.2-3,0.4-4,0.7-4.2l0.5-0.1V26.4l-0.4-0.1c-0.1-0.1-0.7-0.8-0.7-3.7c0-3.5,2.1-4.9,2.2-4.9l0.2-0.2l0.1-0.3
		c2.6-12.5,11.8-13.6,12.2-13.6h0.4l0.2-0.3c0.6-1.2,1.5-1.2,2.7-1.2h0.6c1.2,0,2.1,0.1,2.7,1.2l0.2,0.3h0.4
		c0.1,0,9.7,1.1,12.3,13.7l0.1,0.3l0.2,0.2c0.1,0.1,2.2,1.5,2.2,4.9c0,2.9-0.6,3.6-0.7,3.7l-0.4,0.1v70.3L-390.1,96.9z M-392.6,91.6
		v-6.8l-15.3,10.4c0.1,0,0.1,0,0.1,0s-9.8,0.2-15.3-3.6c0,0-2.4,3.4,0,5.2c1.8,1.4,8.1,3.2,15.3,3.3c7.1-0.1,13.4-1.9,15.3-3.3
		C-390.1,95-392.5,91.6-392.6,91.6C-392.5,91.6-392.5,91.6-392.6,91.6z M-397.9,93.9c-1.1,0.3-2.1,0.5-3.2,0.7
		c-1.6,0.3-3.2,0.4-4.4,0.5c-0.3,0-0.6,0-0.8,0c-0.4,0-0.7,0-1,0c0.3,0,0.6,0,1,0c0.3,0,0.5,0,0.8,0c1.2-0.1,2.7-0.2,4.4-0.5
		C-400,94.5-398.9,94.2-397.9,93.9c1.3-0.4,2.5-0.8,3.7-1.4C-395.3,93.1-396.6,93.6-397.9,93.9z M-393.7,19.5
		c0,0-1.1-13.8-14.1-13.8s-14.5,13.8-14.5,13.8s4.9-2.8,14.5-2.7C-398.2,16.9-393.7,19.5-393.7,19.5z M-395.8,17.4
		c-2.3-0.8-4.4-1.3-6.5-1.4c2.2-4.1-1-8.3-1-8.3C-397.8,9.2-396.1,15.6-395.8,17.4z M-419.7,16.7c1.3-6.3,6.4-8.6,6.4-8.6
		C-416.9,11.2-417.9,12.6-419.7,16.7z M-392.6,29.6l-30.6,20.7v13.8l30.6-20.7V29.6z M-423.1,91.6l30.6-20.7V57.2l-30.6,20.7V91.6z"
		/>
	<path class="st0" d="M-439.6,40c-3,0.2-6,1.3-6,1.3s3.1,0.7,6.1,0.5s6.4-1.3,6.4-1.3S-436.6,39.7-439.6,40z M-448.8,40.3
		c0,0-23.1,2.4-34.1,3.1v0.2c11-0.7,34.2-1,34.2-1l-0.1-1.1V40.3z M-431.5,39c-0.7,0-1.3,0.7-1.3,1.4s0.7,1.3,1.4,1.3
		c0.7,0,1.3-0.7,1.3-1.4C-430.2,39.5-430.8,39-431.5,39z M-447.3,40c-0.7,0-1.3,0.7-1.2,1.4c0,0.7,0.7,1.3,1.4,1.2
		c0.7,0,1.3-0.7,1.2-1.4S-446.6,40-447.3,40z"/>
	<path class="st0" d="M-367.2,40.3l-0.1,1.2l-0.1,1.1c0,0,23.2,0.3,34.2,1v-0.2C-344.1,42.7-367.2,40.3-367.2,40.3 M-368.6,40
		c-0.7,0-1.3,0.5-1.4,1.2c0,0.7,0.5,1.3,1.2,1.4c0.7,0,1.3-0.5,1.4-1.2C-367.4,40.7-367.9,40.1-368.6,40 M-384.4,39
		c-0.7,0-1.4,0.5-1.4,1.3c0,0.7,0.5,1.4,1.3,1.4c0.7,0,1.4-0.5,1.4-1.3C-383.1,39.7-383.7,39.1-384.4,39 M-382.8,40.5
		c0,0,3.4,1.1,6.4,1.3c3,0.1,6.1-0.5,6.1-0.5s-3-1-6-1.3S-382.8,40.5-382.8,40.5"/>
	<path class="st0" d="M-383.5,120.5l0.9-0.7v-4.3l-0.9-0.7h-1.9v-0.1l-0.9,0.7v4.4l0.9,0.7H-383.5z M-418.8,118.3v2.3h2.3l0.7-0.9
		V119l-0.7-0.7H-418.8z M-375.7,116.1v-0.5l-0.7-0.9h-2.2v2.3h2.2L-375.7,116.1z M-403.8,116.2v-0.6l-0.7-0.8h-2.2v2.3h2.2
		L-403.8,116.2z M-443.7,126.3l-2.7-14.9h-5.5l3.8,8.2l-3.8,8.1h20.8l-2.1-1.4C-433.2,126.3-443.7,126.3-443.7,126.3z M-373.7,124.8
		l3-15.2h-74.5l2.5,15.2H-373.7z M-379.8,117.1v-3.6h4l1.3,1.5v1.7l-1.3,1.5h-2.8v3.5h-1.2v-3.4l-0.7-0.6L-379.8,117.1z
		 M-387.3,117.1v-2.2l1.5-1.4h2.9l1.5,1.4v2.2l0.7,0.6l-0.7,0.6v2.1l-1.5,1.4h-2.9l-1.5-1.4v-2.1l-0.7-0.6L-387.3,117.1z
		 M-394.8,117.1v-3.6h1.2v3.5h3.4v-3.5h1.2v3.5l0.7,0.6l-0.7,0.7v3.5h-1.2v-3.5h-3.4v3.5h-1.2v-3.5l-0.7-0.6L-394.8,117.1z
		 M-401.8,118.9h1.2v0.9l0.9,0.7h1.8l0.9-0.7v-0.9l-0.9-0.7h-2.1l-1.5-1.4v-1.9l1.5-1.4h2.6l1.5,1.4v1.4h-1.2v-0.9l-0.8-0.7h-1.7
		l-0.8,0.7v0.9l0.8,0.7h2.2l1.5,1.4v2h-0.1l-1.5,1.4h-2.8l-1.5-1.4V118.9z M-407.9,113.5h4l1.3,1.5v1.6l-1.3,1.5l1.7,3.5h-1.3v0.2
		l-1.7-3.5h-1.5v3.5h-1.2v-3.5l-0.7-0.6l0.7-0.6V113.5z M-413.6,117.1v-3.6h5v1.2h-3.8v2.3h2.9v1.2h-2.9v2.4h3.8v1.2h-5v-3.5
		l-0.7-0.6L-413.6,117.1z M-420,117.1v-3.6h4l1.3,1.5v1.6l-0.8,0.9l0.8,0.9v1.8h0.1l-1.3,1.5h-4.1v-3.4l-0.7-0.6L-420,117.1z
		 M-426.6,117.1v-3.6h4l1.3,1.5v1.6l-1.3,1.5l1.7,3.5h-1.3v0.2l-1.7-3.5h-1.5v3.5h-1.2v-3.5l-0.7-0.6L-426.6,117.1z M-432.9,117.2
		l1.4-3.6h1.3l3.1,8.2h-1.2l-0.8-2.1h-3.4l-0.8,2.1h-1.3l1.3-3.5l-0.6-0.6L-432.9,117.2z M-439.9,117.1v-3.6h4l1.3,1.5v1.6l-0.8,0.9
		l0.8,0.9v1.8h0.1l-1.3,1.5h-4.1v-3.4l-0.7-0.6L-439.9,117.1z M-397.1,128.2c-1.1,0.8-3.5,2.9-4.7,4l-2-2l-2.2,2.2l-0.9-0.9l2.2-2.2
		c2-2,4.1-1.6,4.2,0.2c0,0.4,0.2,0.3,0.2,0.1c0.2-2.3-3.4-3.4-5.4-1.3l-2.1-2.1l-2.2,2.2c-2.4-2.1-4.9-0.7-4.6,0.9
		c0,0.2,0.2,0.3,0.2-0.1c0.2-1.6,2.4-2.1,4.1-0.4c0.5,0.5,1.9,1.9,1.9,1.9l-1.5,2.2l-2-2l-2.2,2.2c-1.1-1.1-4.4-4-5.1-4.6
		c-4-3-6.5-1-6.5,0.6c0,2.3,3.1,2.5,3.7,1.3c0.3-0.6-0.2-1.4-0.7-1.2c-0.2,0-0.1,0.1-0.1,0.2c0.1,0.3,0,0.8-0.6,0.7
		c-0.1-0.1-0.1-0.1,0-0.2c0.4-0.4,0-1.3-0.7-1c-0.1,0-0.1,0-0.1,0.1c0.1,0.2-0.2,0.4-0.5,0.3c-0.3,0-0.6-0.6-0.3-1.3
		c0.5-1.1,2.8-1.6,5.3,0.5c-1.7-0.8-2.7-1-3.6-0.7c-0.1,0-0.1,0.1,0.1,0.1c0.7,0.1,1.4,0.4,2.1,0.9c-0.3,0.8,0.4,1.6,1.4,1.5
		c1.2-0.1,2.3,0.5,2.9,1c0.6,0.6,1.7,1.6,2.1,2c-3.2,3.1-5.5,1.2-5.5-0.2c0-1.8,2.3-2.1,2.8-1c0.2,0.3,0.4,0.3,0.3,0
		c-0.5-1.6-3.5-1.4-3.5,1c0,2,3.4,4,7,1.2l2,2l2.3-2.3l0.9,0.9l-2.3,2.3l3,3l2.6-2.6l-1.9-2l1.9-1.9l1.9,1.9l2.2-2.2
		c4,3.6,7.1,1.7,6.9-0.6c-0.1-1.1-0.8-2-2.1-2c-1.1,0-2.1,1.1-1.6,2.2c0.1,0.2,0.4,0.3,0.2-0.1c-0.2-0.7,0.4-1.6,1.4-1.6
		c0.7,0.1,1.4,0.5,1.6,1.5c0.4,2.2-2.6,3.7-6.1,0.5c0,0,1.4-1.3,2.5-2.3c0.5-0.5,1.3-0.8,2.3-0.8c1.5,0,2-0.7,1.8-1.5
		c0.4-0.5,1.8-0.9,2.1-0.9c0.2,0,0.2-0.1,0.1-0.1c-0.9-0.3-1.9-0.1-3.6,0.7c2.7-2.2,5.2-1.5,5.4-0.2c0,0.5-0.1,0.8-0.4,0.9
		c-0.4,0.1-0.7-0.1-0.7-0.3c0-0.1-0.1-0.1-0.1-0.1c-0.4,0.1-0.6,0.4-0.6,0.6c0,0.1,0,0.1-0.1,0.1c-0.1,0-0.2-0.1-0.1-0.4
		c0-0.1,0-0.1-0.2-0.1c-0.8,0.1-0.9,1.5,0.6,1.8c0.9,0.2,1.9-0.4,2-1.7C-389.5,126.2-393.7,125.7-397.1,128.2z M-412.6,134.8
		l-0.9-0.9l1.9-1.9l0.9,0.9L-412.6,134.8z M-409,129.4l1.9-1.9l0.9,0.9l-1.9,1.9L-409,129.4z M-406.7,136.8l-1.9,1.9l-0.9-0.9
		l1.9-1.9L-406.7,136.8z M-408.3,134.5l-0.9-0.9l1.9-1.9l0.9,0.9L-408.3,134.5z M-404.1,134.3l-0.9-0.9l1.9-1.9l0.9,0.9
		L-404.1,134.3z M-364.1,111.4h-5.5l-2.7,14.9h-10.4l-2.2,1.4h20.8l-3.8-8.1L-364.1,111.4z M-422.5,116.2v-0.6l-0.7-0.8h-2.2v2.3
		h2.2L-422.5,116.2z M-430.7,115.1l-1.3,3.4h2.5L-430.7,115.1z M-435.7,119.7V119l-0.7-0.7h-2.3v2.3h2.3L-435.7,119.7z
		 M-415.9,116.2v-0.6l-0.7-0.9h-2.2v2.3h2.2L-415.9,116.2z M-435.8,116.2v-0.6l-0.7-0.9h-2.2v2.3h2.2L-435.8,116.2z"/>
	<path class="st0" d="M-318.4,48.5h0.5l2.1-5.5h-0.5L-318.4,48.5z M-325,45.8l0.5-0.4L-325,45v-2.3h-0.8l-0.7,0.5v0.6h0.7v1.3
		l-0.5,0.4l0.5,0.4v1.6h-0.7v0.8h2.2v-0.9h-0.7V45.8z M-312.5,45h-1.6l-0.5-0.4V44l0.6-0.5h0.9l0.6,0.5V45z M-311.7,45v-1.4l-1-0.9
		h-1.6l-1,0.9V45l1,0.8h1.8v1.1l-0.6,0.5h-0.9l-0.6-0.5v-0.6h-0.8v1l1,0.9h1.6l1-0.9v-1.5l0.5-0.4L-311.7,45z M-321.8,42.7l-1,0.9
		v0.9h0.8V44l0.5-0.5h1.1l0.5,0.5v0.6l-0.6,0.4h-1.1v0.8h1.2l0.5,0.4v0.7l-0.5,0.5h-1.1l-0.5-0.5v-0.5h-0.8v0.9l1,0.9h1.8l1-0.9
		v-1.4l-0.6-0.5l0,0l0.6-0.4v-1.4l-1-0.9C-320,42.7-321.8,42.7-321.8,42.7z"/>
	<path class="st1" d="M-318.6,48.2h0.5l2.1-5.5h-0.5L-318.6,48.2z M-312.7,44.7h-1.6l-0.5-0.4v-0.7l0.6-0.5h0.9l0.6,0.5V44.7z
		 M-311.9,44.7v-1.5l-1-0.9h-1.6l-1,0.9v1.4l1,0.8h1.8v1.1l-0.6,0.5h-0.9l-0.6-0.5v-0.6h-0.8v1l1,0.9h1.6l1-0.9v-1.4l0.5-0.4
		L-311.9,44.7z M-325.2,45.5l0.5-0.4l-0.5-0.4v-2.4h-0.8l-0.7,0.5v0.6h0.7v1.3l-0.5,0.4l0.5,0.4v1.6h-0.7v0.8h2.2v-0.8h-0.7V45.5z
		 M-322.1,42.3l-1,0.9v0.9h0.8v-0.5l0.5-0.5h1.2l0.5,0.5v0.7l-0.6,0.4h-1.1v0.8h1.2l0.5,0.4v0.7l-0.5,0.5h-1.2l-0.5-0.5V46h-0.8v0.9
		l1,0.9h1.8l1-0.9v-1.4l-0.6-0.5l0,0l0.6-0.4v-1.4l-1-0.9C-320.3,42.3-322.1,42.3-322.1,42.3z"/>
	<path class="st0" d="M-367.7,94.1l-3.4,6.7l-10.9-0.5l0.6-46.9l-9.1-0.3l2.8,1.4l-0.6,30.8h-2.3l2.3,2.3v15.7l-1.9,1.2l25,1
		l-2.5-1.9V94.1z M-320.4,115.7c-2.3-15.3-15.9-26.1-19.4-28.4c-1.5-1-2.8-1.9-4.2-2.5c-5.1-2.5-9.1-2.7-10.9-2.8V59.2l8.3-2.3
		l0.1,7.7c0,0,1.7,0.6,2.8,1.1c0.9,0.4,2.7,1.6,2.7,1.6v-12c0,0,9.3-3.4,13.8-2.6c0,0-10.5-2.6-14.6-2.1c-4.2,0.5-10.9,3.3-13.7,3.4
		c-2.8,0.1-6.3,0-6.3,0l1.7,2l-0.3,28.1c0,0,4.3-0.6,5.7-0.5c1,0,1.8,0.1,3.9,0.4c1.5,0.3,3.2,0.8,4.3,1.5v26.2l-8.2-7v-4.4l1.7-0.9
		l-7.2-4.6v10l-1.6,1.6l2.2,0.5l24.4,20.7l-5.6-7.6V97.7l2.5-1.3l-2.4-1.3V89c0,0,9.5,6,14.2,20.1c0.4,1.1,0.8,3.6,0.9,6
		c0,2-0.2,3.9-0.3,4.5c-1.4,7.2-5.7,10.2-11.6,10.4c-8.1,0.3-18.8-6.5-22.7-14.9c0,0,1.4,3.8,4.7,7.7c2.1,2.5,5.4,5,8.4,6.8
		c9.1,5.5,16.5,4.5,18.7,4.1c0,0,0.2,1,0.3,1.3c0.5,1.1,1.6,2.2,1.6,2.2s-0.6-1.3-0.1-3.9C-326.6,132.1-318.4,128.4-320.4,115.7z
		 M-395.8,92.3l-3.5,7.5h-10.9V52.6h-9l2.8,2v30.3h-2.3l2.3,2.3v15.3l-1.9,1.4h25l-2.5-2V92.3z M-425.2,54.7l2-2.2l-23.8,0.9
		l2.5,1.7l0.4,31.5l-2.4,0.6l2.4,1.7l0.4,14.7l-2.3,1.6l8.2-0.3l-0.3-23.6l3.6-0.3c0,0,0.7-2.5,3-4.6l-6.7,0.3l-0.4-19.1l7.3-0.2
		l0.4,28.2l-2.2,0.4l2.2,2.1l0.5,16.5l8-0.4l-1.9-1.7L-425.2,54.7z M-468.1,85.8c1.1-0.6,2.8-1.4,4.3-1.7c2-0.4,3.9-0.4,3.9-0.4v6.9
		l-1.7,0.8l1.7,0.9v12.5l-8.2,7V85.8L-468.1,85.8z M-454.9,107l2.2-0.5l-1.6-1.6l-0.1-19.9l-3.7-2.2l3.8-3l-0.2-23.7l1.7-2
		c0,0-3.5,0.1-6.3,0s-9.6-2.9-13.7-3.4c-4.2-0.5-14.6,2.1-14.6,2.1c4.5-0.8,13.8,2.6,13.8,2.6v30c0,0,1.8-1.1,2.7-1.6
		c1.1-0.5,2.8-1.1,2.8-1.1L-468,57l8.3,2.3v22.8c-1.8,0.1-5.8,0.3-10.9,2.8c-1.4,0.7-2.6,1.5-4.2,2.5c-3.5,2.3-17.1,13.1-19.4,28.4
		c-1.9,12.7,6.3,16.4,6.5,17.5c0.5,2.5-0.1,3.9-0.1,3.9s1.1-1.1,1.6-2.2c0.2-0.3,0.3-1.3,0.3-1.3c2.2,0.4,9.6,1.4,18.7-4.1
		c3-1.8,6.2-4.2,8.4-6.8c3.3-3.9,4.7-7.7,4.7-7.7c-3.9,8.4-14.6,15.2-22.7,14.9c-5.9-0.2-10.2-3.2-11.6-10.4
		c-0.1-0.6-0.4-2.6-0.3-4.5c0.1-2.4,0.5-4.9,0.9-6C-483,95-473.6,89-473.6,89v6.1l-2.4,1.3l2.5,1.3V120l-5.6,7.6L-454.9,107z"/>
	<path class="st1" d="M-397.1,91l-3.5,7.5h-10.9V51.3h-9l2.8,2v30.3h-2.3l2.3,2.3v15.3l-1.9,1.4h25l-2.5-2V91z M-368.9,92.3
		l-3.4,6.7l-10.9-0.5l0.6-46.9l-9.1-0.3l2.8,1.4l-0.6,30.8h-2.3l2.3,2.3v15.7l-1.9,1.2l25,1l-2.5-1.9V92.3z M-321.6,113.8
		c-2.3-15.3-15.9-26.1-19.4-28.4c-1.5-1-2.8-1.9-4.2-2.5c-5.1-2.5-9.1-2.7-10.9-2.8V57.3l8.3-2.3l0.1,7.7c0,0,1.7,0.6,2.8,1.1
		c0.9,0.4,2.7,1.6,2.7,1.6v-12c0,0,9.3-3.4,13.8-2.6c0,0-10.5-2.6-14.6-2.1c-4.1,0.5-10.9,3.3-13.7,3.4c-2.8,0.1-6.3,0-6.3,0l1.7,2
		l-0.3,28.1c0,0,4.3-0.6,5.7-0.5c1,0,1.8,0.1,3.9,0.4c1.5,0.3,3.2,0.8,4.3,1.5v26.2l-8.2-7v-4.4l1.7-0.9l-7.2-4.6v10l-1.6,1.6
		l2.2,0.5l24.4,20.7l-5.6-7.6V95.8l2.5-1.3l-2.4-1.3v-6.1c0,0,9.5,6,14.2,20.1c0.4,1.1,0.8,3.6,0.9,6c0,2-0.2,3.9-0.3,4.5
		c-1.4,7.2-5.7,10.2-11.6,10.4c-8.1,0.3-18.8-6.5-22.7-14.9c0,0,1.4,3.8,4.7,7.7c2.1,2.5,5.4,5,8.4,6.8c9.1,5.5,16.5,4.5,18.7,4.1
		c0,0,0.2,1,0.3,1.3c0.5,1.1,1.6,2.2,1.6,2.2s-0.6-1.3-0.1-3.9C-327.9,130.2-319.7,126.5-321.6,113.8z M-469.3,84.6
		c1.1-0.6,2.8-1.4,4.3-1.7c2-0.4,3.9-0.4,3.9-0.4v6.9l-1.7,0.8l1.7,0.9v12.5l-8.2,7L-469.3,84.6L-469.3,84.6z M-456.2,105.7l2.2-0.5
		l-1.6-1.6l-0.1-19.9l-3.7-2.2l3.8-3l-0.2-23.7l1.7-2c0,0-3.5,0.1-6.3,0s-9.6-2.9-13.7-3.4c-4.2-0.5-14.6,2.1-14.6,2.1
		c4.5-0.8,13.8,2.6,13.8,2.6v30c0,0,1.8-1.1,2.7-1.6c1.1-0.5,2.8-1.1,2.8-1.1l0.1-25.7l8.3,2.3v22.8c-1.8,0.1-5.8,0.3-10.9,2.8
		c-1.4,0.7-2.6,1.5-4.2,2.5c-3.5,2.3-17.1,13.1-19.4,28.4c-1.9,12.7,6.3,16.4,6.5,17.5c0.5,2.5-0.1,3.9-0.1,3.9s1.1-1.1,1.6-2.2
		c0.2-0.3,0.3-1.3,0.3-1.3c2.2,0.4,9.6,1.4,18.7-4.1c3-1.8,6.2-4.2,8.4-6.8c3.3-3.9,4.7-7.7,4.7-7.7c-3.9,8.4-14.6,15.2-22.7,14.9
		c-5.9-0.2-10.2-3.2-11.6-10.4c-0.1-0.6-0.4-2.6-0.3-4.5c0.1-2.4,0.5-4.9,0.9-6c4.8-14.1,14.2-20.1,14.2-20.1v6.1l-2.4,1.3l2.5,1.3
		v22.3l-5.6,7.6L-456.2,105.7z M-426.4,53.5l2-2.2l-23.8,0.9l2.5,1.7l0.4,31.5l-2.4,0.6l2.4,1.7l0.4,14.7l-2.3,1.6l8.2-0.3
		l-0.3-23.6l3.6-0.3c0,0,0.7-2.5,3-4.6l-6.7,0.3l-0.4-19.1l7.3-0.2l0.4,28.2l-2.2,0.4l2.2,2.1l0.5,16.5l8-0.4l-1.9-1.7L-426.4,53.5z
		"/>
</g>
</svg>
