<?xml version="1.0" encoding="utf-8"?>
<!-- Generator: Adobe Illustrator 22.1.0, SVG Export Plug-In . SVG Version: 6.00 Build 0)  -->
<svg version="1.1" id="Layer_1" xmlns="http://www.w3.org/2000/svg" xmlns:xlink="http://www.w3.org/1999/xlink" x="0px" y="0px"
	 viewBox="0 0 301 311" style="enable-background:new 0 0 301 311;" xml:space="preserve">
<style type="text/css">
	.st0{fill:url(#SVGID_1_);}
	.st1{fill:url(#SVGID_2_);}
</style>
<g id="Path-11_1_">
	
		<linearGradient id="SVGID_1_" gradientUnits="userSpaceOnUse" x1="150.5" y1="131.5" x2="150.5" y2="312" gradientTransform="matrix(1 0 0 -1 0 312)">
		<stop  offset="0" style="stop-color:#BFBB50;stop-opacity:0"/>
		<stop  offset="1" style="stop-color:#BFBB50"/>
	</linearGradient>
	<polygon class="st0" points="301,180.5 300,180.5 300,11 290,11 290,1 11,1 11,11 1,11 1,180.5 0,180.5 0,10 10,10 10,0 291,0 
		291,10 301,10 	"/>
</g>
<g id="Path-11-Copy_1_">
	
		<linearGradient id="SVGID_2_" gradientUnits="userSpaceOnUse" x1="150.5" y1="136.5" x2="150.5" y2="307" gradientTransform="matrix(1 0 0 -1 0 312)">
		<stop  offset="0" style="stop-color:#BFBB50;stop-opacity:0"/>
		<stop  offset="1" style="stop-color:#BFBB50"/>
	</linearGradient>
	<polygon class="st1" points="296,175.5 295,175.5 295,16 285,16 285,6 16,6 16,16 6,16 6,175.5 5,175.5 5,15 15,15 15,5 286,5 
		286,15 296,15 	"/>
</g>
</svg>
