<?xml version="1.0" encoding="utf-8"?>
<!-- Generator: Adobe Illustrator 22.1.0, SVG Export Plug-In . SVG Version: 6.00 Build 0)  -->
<svg version="1.1" id="Layer_1" xmlns="http://www.w3.org/2000/svg" xmlns:xlink="http://www.w3.org/1999/xlink" x="0px" y="0px"
	 viewBox="0 0 25 25" style="enable-background:new 0 0 25 25;" xml:space="preserve">
<style type="text/css">
	.st0{opacity:0.25;}
	.st1{opacity:0.4;fill:#BFBB50;enable-background:new    ;}
	.st2{fill:#BFBB50;}
</style>
<g class="st0">
	<path class="st1" d="M2.3,2.7l7.5,7.5l0.4-0.4L2.7,2.3L2.3,2.7z M14.8,15.2l7.5,7.5l0.4-0.4l-7.5-7.5L14.8,15.2z M2.3,22.3l0.4,0.4
		l7.5-7.5l-0.4-0.4L2.3,22.3z M22.7,2.7l-0.4-0.4l-7.5,7.5l0.4,0.4L22.7,2.7z"/>
	<path class="st2" d="M15,14.5c-0.3,0-0.5,0.2-0.5,0.5s0.2,0.5,0.5,0.5s0.5-0.2,0.5-0.5S15.3,14.5,15,14.5z M15,9.5
		c-0.3,0-0.5,0.2-0.5,0.5s0.2,0.5,0.5,0.5s0.5-0.2,0.5-0.5S15.3,9.5,15,9.5z M2.5,22C2.2,22,2,22.2,2,22.5S2.2,23,2.5,23
		S3,22.8,3,22.5S2.8,22,2.5,22z M10,9.5c-0.3,0-0.5,0.2-0.5,0.5s0.2,0.5,0.5,0.5s0.5-0.2,0.5-0.5S10.3,9.5,10,9.5z M2.5,2
		C2.2,2,2,2.2,2,2.5S2.2,3,2.5,3S3,2.8,3,2.5S2.8,2,2.5,2z M22.5,22c-0.3,0-0.5,0.2-0.5,0.5s0.2,0.5,0.5,0.5s0.5-0.2,0.5-0.5
		S22.8,22,22.5,22z M10,14.5c-0.3,0-0.5,0.2-0.5,0.5s0.2,0.5,0.5,0.5s0.5-0.2,0.5-0.5S10.3,14.5,10,14.5z M22.5,2
		C22.2,2,22,2.2,22,2.5S22.2,3,22.5,3S23,2.8,23,2.5S22.8,2,22.5,2z M23.5,0L25,1.5V0H23.5z M0,25h1.5L0,23.5V25z M0,1.5L1.5,0H0
		V1.5z M25,25v-1.5L23.5,25H25z M11,12.5l1.5,1.5l1.5-1.5L12.5,11L11,12.5z"/>
</g>
</svg>
