<?xml version="1.0" encoding="utf-8"?>
<!-- Generator: Adobe Illustrator 22.1.0, SVG Export Plug-In . SVG Version: 6.00 Build 0)  -->
<svg version="1.1" id="Layer_1" xmlns="http://www.w3.org/2000/svg" xmlns:xlink="http://www.w3.org/1999/xlink" x="0px" y="0px"
	 viewBox="0 0 50 50" style="enable-background:new 0 0 50 50;" xml:space="preserve">
<style type="text/css">
	.st0{fill:#FEFEFC;}
</style>
<path class="st0" d="M40.2,24.5l-12-1c-0.6,0-1,0.4-1.1,0.9l-0.3,3c-1.3-0.1-2.3-1.1-2.5-2.3c-0.6-3.8-1.6-6.9-3.1-9.3
	c-1.8-2.8-5.1-4.4-10-4.8c0-0.6-0.4-1-0.9-1.1l-4-0.3c-0.6,0-1,0.4-1.1,0.9l-0.2,2c0,0.6,0.4,1,0.9,1.1l4,0.3c0.6,0,1-0.4,1.1-0.9
	c3.7,0.5,6,2.2,7,4.9c1,2.8,1.2,6.4,0.7,10.8c-0.5,6.1,3.9,11.4,10,11.9c6.1,0.5,11.4-3.9,11.9-10l0.4-5
	C41.1,25.1,40.7,24.6,40.2,24.5z M41.3,13c-1.8-0.4-4.3-0.6-6.9-0.5c-2.6,0.1-5,0.4-6.8,1c-2.1,0.6-3.1,1.4-3.1,2.4
	c0.1,1.8,4.3,2.7,8.8,2.7c0.4,0,0.8,0,1.3,0c5-0.2,10-1.4,9.9-3.3C44.5,14.2,43.4,13.5,41.3,13z M34.6,17.5c-5.8,0.2-9-1-9.1-1.7
	c0-0.3,0.6-0.8,2.4-1.4c1.7-0.5,4.1-0.9,6.6-0.9c2.5-0.1,4.8,0.1,6.6,0.5c1.8,0.4,2.4,0.9,2.5,1.2C43.5,15.9,40.4,17.3,34.6,17.5z"
	/>
</svg>
